<svg width="1440" height="1024" viewBox="0 0 1440 1024" fill="none" xmlns="http://www.w3.org/2000/svg">
<rect width="1440" height="1024" fill="white"/>
<path d="M22.8275 512.88C22.8275 512.88 -96.0257 172.61 228.704 155.527C553.433 138.444 493.621 228.309 782.005 172.794C1070.39 117.279 1075.24 78.859 1225.48 134.361C1375.72 189.864 1385.38 332.9 1353.93 405.485C1322.48 478.07 1259.42 535.706 1264.26 576.272C1269.1 616.838 1371 721.152 1384.47 791.59C1391.88 830.049 1370.36 895.64 1350.26 898.433C1200.83 919.664 600.764 884.735 600.764 884.735L252.451 871.037L66.0132 848.449C66.0132 848.449 72.3941 753.315 71.7723 678.096C71.1357 601.02 22.8275 512.88 22.8275 512.88Z" fill="#F8F8FF"/>
<path d="M66.6942 837.965C66.6942 837.965 26.0697 987.284 248.971 977.129C471.873 966.974 469.223 944.952 609.869 983.899C750.515 1022.85 838.085 1038.1 946.886 1007.61C1055.69 977.116 1058.34 982.173 1196.3 982.173C1334.27 982.173 1381.51 851.215 1385.11 833.342C1389.36 812.268 1379.42 743.147 1359.7 742.937C1213.88 741.356 310.619 734.626 239.407 752.156C178.219 767.198 104.683 817.168 69.3147 830.484" fill="#F5F5FC"/>
<path d="M93.3429 706.901L231.028 656.851L233.397 155.883C233.397 155.883 131.835 161.625 91.8624 195.869L93.3429 706.901Z" fill="#E9EDFB"/>
<path d="M91.8624 195.869L95.2232 706.242L71.1357 715.133C71.1357 715.133 74.5704 691.913 68.6485 641.494C63.2003 594.5 7.23799 480.467 3.03341 436.897C0.0724448 406.011 1.71578 279.953 36.3443 242.534C68.3079 208 91.8624 195.869 91.8624 195.869Z" fill="#E9EDFB"/>
<path d="M165.598 344.531C181.306 342.097 192.504 332.281 190.61 322.607C188.716 312.933 174.447 307.063 158.739 309.497C143.032 311.931 131.833 321.746 133.727 331.421C135.621 341.095 149.89 346.965 165.598 344.531Z" fill="white"/>
<path d="M197.69 335.935C210.506 333.949 219.643 325.943 218.098 318.053C216.553 310.163 204.912 305.377 192.096 307.363C179.28 309.349 170.143 317.354 171.688 325.244C173.232 333.134 184.874 337.921 197.69 335.935Z" fill="white"/>
<path d="M35.3001 406.424C51.0078 403.991 62.206 394.175 60.312 384.501C58.418 374.826 44.149 368.957 28.4413 371.39C12.7336 373.824 1.53539 383.64 3.42939 393.314C5.3234 402.989 19.5924 408.858 35.3001 406.424Z" fill="white"/>
<path d="M62.9577 389.931C75.7735 387.945 84.9107 379.939 83.366 372.049C81.8214 364.159 70.1798 359.373 57.3639 361.359C44.5481 363.344 35.411 371.35 36.9557 379.24C38.5003 387.13 50.1418 391.917 62.9577 389.931Z" fill="white"/>
<path d="M103.617 187.611L110.605 184.147L110.931 184.002L115.284 182.066L119.444 180.394L126.195 694.797L111.716 700.144L103.617 187.611Z" fill="white"/>
<path d="M50.5421 577.734L48.9284 572.887C48.6767 573.058 47.67 569.37 47.5812 569.305L45.7306 565.353L44.0576 561.06L231.887 497.931L232.508 511.971L50.5421 577.734Z" fill="white"/>
<path d="M4.85436 447.763L4.32141 444.931C3.96609 444.102 3.5664 440.835 3.2555 440.058L2.48562 434.658L1.80457 430.707L233.441 351.945L232.745 365.774L4.85436 447.763Z" fill="white"/>
<path d="M631.469 634.329C636.459 628.567 639.715 621.767 640.929 614.573C642.291 605.814 645.86 594.645 654.891 586.993C668.615 575.337 670.643 526.407 670.924 508.257C670.998 501.402 672.21 494.593 674.522 488.053C678.623 476.581 687.017 460.697 703.302 453.032C719.898 445.221 772.885 442.021 788.341 453.466C819.801 476.818 815.405 507.467 815.893 512.327C818.277 535.271 816.811 552.011 829.928 566.407C843.045 580.803 857.88 598.412 854.016 616.246C850.152 634.079 884.662 660.381 846.894 671.353C809.127 682.324 770.531 689.911 728.456 686.921C691.177 684.287 640.204 678.9 630.181 656.957C625.207 645.986 627.709 638.781 631.469 634.329Z" fill="#E9EDFA"/>
<path d="M640.87 631.471C642.617 629.232 644.882 625.887 648.909 624.135C652.936 622.383 661.005 617.247 700.8 631.84C757.636 652.69 804.434 627.257 808.876 626.756C813.317 626.256 853.453 615.06 852.343 638.452C851.232 661.843 803.857 674.566 789.378 675.08C774.899 675.594 715.265 680.678 685.744 673.052C656.223 665.426 644.986 655.363 642.987 652.861C640.796 650.121 633.497 640.902 640.87 631.471Z" fill="#BAC5F4"/>
<path d="M854.549 801.653H852.52C851.183 801.676 849.853 801.459 848.612 801.014C847.371 800.57 846.243 799.908 845.296 799.067C844.35 798.226 843.603 797.223 843.102 796.12C842.601 795.016 842.355 793.834 842.379 792.644L842.601 781.409C842.614 780.747 842.845 780.103 843.266 779.557C843.687 779.012 844.28 778.588 844.97 778.34L845.902 778.011C846.531 777.79 847.081 777.424 847.496 776.95C847.911 776.476 848.175 775.911 848.261 775.315C848.348 774.719 848.252 774.114 847.986 773.561C847.719 773.009 847.291 772.531 846.746 772.176C846.133 771.808 845.472 771.507 844.777 771.281C838.604 769.2 825.531 762.443 791.228 759.321C772.515 757.622 762.892 757.069 758.006 756.911C757.433 756.892 756.873 756.758 756.367 756.518C755.86 756.279 755.422 755.94 755.084 755.528C754.746 755.116 754.518 754.641 754.416 754.139C754.315 753.637 754.342 753.121 754.497 752.63C754.742 751.856 755.289 751.185 756.041 750.738C756.794 750.291 757.7 750.098 758.598 750.194C770.694 751.511 813.509 756.16 827.456 759.084C835.736 760.937 843.642 763.923 850.892 767.935C852.281 768.721 853.456 769.774 854.33 771.016C855.203 772.258 855.753 773.658 855.94 775.113C855.987 775.61 856.158 776.091 856.439 776.521C856.721 776.952 857.107 777.321 857.569 777.603C858.945 778.453 860.437 779.143 862.01 779.657C864.349 780.355 864.275 787.744 863.816 793.724C863.662 795.836 862.626 797.82 860.911 799.287C859.196 800.754 856.927 801.598 854.549 801.653V801.653Z" fill="#A2B7ED"/>
<path d="M744.075 692.294L743.779 792.011C743.779 792.64 743.498 793.243 742.998 793.688C742.498 794.133 741.821 794.382 741.114 794.382H740.522C740.165 794.382 739.813 794.446 739.484 794.569C739.156 794.692 738.859 794.873 738.611 795.1C738.362 795.327 738.167 795.596 738.038 795.891C737.908 796.187 737.847 796.502 737.857 796.819L738.331 813.651C738.387 815.645 739.308 817.542 740.9 818.945C742.492 820.349 744.632 821.152 746.873 821.185L752.795 821.264C754.006 821.285 755.208 821.085 756.329 820.677C757.449 820.269 758.465 819.662 759.312 818.892C760.159 818.122 760.82 817.206 761.255 816.201C761.69 815.196 761.889 814.122 761.841 813.045L761.159 796.674C761.136 796.059 760.845 795.476 760.348 795.049C759.851 794.621 759.186 794.382 758.495 794.382V794.382C758.143 794.382 757.796 794.321 757.471 794.201C757.147 794.081 756.853 793.905 756.605 793.683C756.357 793.462 756.161 793.199 756.028 792.91C755.895 792.62 755.828 792.311 755.83 791.998L756.141 689.739C756.143 689.425 756.074 689.113 755.939 688.822C755.804 688.531 755.606 688.267 755.355 688.045C755.104 687.823 754.806 687.648 754.478 687.529C754.151 687.411 753.8 687.352 753.446 687.355H746.651C746.292 687.357 745.937 687.423 745.608 687.549C745.278 687.676 744.98 687.86 744.733 688.091C744.486 688.323 744.293 688.596 744.167 688.895C744.041 689.194 743.985 689.513 744.001 689.832L744.075 692.294Z" fill="#A2B7ED"/>
<path d="M744.164 764.576C744.164 764.576 653.603 797.016 639.316 807.777C625.029 818.538 622.69 825.347 623.341 828.231C623.341 828.534 623.889 828.758 624.585 828.903C626.301 829.33 627.807 830.255 628.861 831.533C629.916 832.81 630.459 834.365 630.403 835.95L630.078 852.914C630.051 854.17 629.471 855.368 628.464 856.249C627.457 857.13 626.101 857.626 624.689 857.629H614.473C613.055 857.629 611.694 857.133 610.683 856.249C609.672 855.364 609.093 854.162 609.069 852.901L608.744 836.042C608.707 834.304 609.38 832.614 610.637 831.284C611.895 829.954 613.653 829.075 615.584 828.811H615.761C615.761 828.811 619.314 816.062 624.807 811.689C630.3 807.316 639.938 797.556 677.853 782.884C715.768 768.212 744.134 758.966 744.134 758.966L744.164 764.576Z" fill="#BAC5F4"/>
<path d="M755.682 763.325C755.675 763.851 755.844 764.366 756.169 764.805C756.493 765.243 756.958 765.586 757.503 765.788C769.939 770.53 842.216 798.334 854.563 808.159C868.08 818.92 870.286 825.729 869.679 828.613C869.546 829.272 867.547 829.535 865.756 829.628C864.978 829.662 864.247 829.967 863.721 830.477C863.194 830.988 862.915 831.662 862.943 832.354L863.269 850.345C863.304 852.396 864.244 854.353 865.887 855.792C867.529 857.231 869.742 858.038 872.048 858.037H874.609C876.892 858.038 879.085 857.24 880.713 855.816C882.341 854.392 883.276 852.456 883.314 850.424L883.655 832.499C883.662 831.862 883.41 831.244 882.945 830.759C882.479 830.275 881.832 829.957 881.123 829.865L878.888 829.535C878.314 829.46 877.779 829.236 877.347 828.891C876.916 828.547 876.607 828.098 876.46 827.599C875.364 824.004 872.418 815.522 868.376 812.097C863.18 807.698 854.06 797.965 818.173 783.292C790.68 772.058 768.621 764.023 759.827 760.902C759.37 760.726 758.869 760.657 758.373 760.699C757.877 760.741 757.401 760.894 756.99 761.144C756.578 761.393 756.243 761.731 756.017 762.127C755.791 762.522 755.681 762.961 755.697 763.404L755.682 763.325Z" fill="#BAC5F4"/>
<path d="M259.157 839.927L260.638 610.753H294.689V841.244L259.157 839.927Z" fill="white"/>
<path d="M1045.41 606.67L1046.77 842.562H1076.38L1077.04 607.632L1045.41 606.67Z" fill="white"/>
<path d="M155.523 583.094V610.753L1174.1 608.119V584.411L155.523 583.094Z" fill="white"/>
<path d="M155.523 583.094L228.067 563.338L1091.19 564.655L1174.1 584.411L155.523 583.094Z" fill="#BAC5F4"/>
<path d="M618.145 575.442L635.215 566.196L713.828 565.735L701.97 574.718L618.145 575.442Z" fill="#F8F8FF"/>
<path d="M226.705 514.474C226.705 514.474 213.84 513.947 212.181 517.635C210.523 521.323 215.142 571.636 217.156 574.612C219.169 577.589 239.674 578.458 245.477 578.458C245.477 578.458 266.959 576.759 268.01 575.455C269.061 574.151 283.629 522.126 278.862 515.172C274.095 508.218 227.445 514.645 227.445 514.645" fill="#E9EDFC"/>
<path d="M211.13 526.301C211.13 526.301 251.103 529.028 255.826 527.829C260.549 526.631 258.994 515.975 258.994 515.975L278.862 515.185C278.862 515.185 278.862 525.432 277.515 526.644C276.013 528.248 274.863 530.089 274.125 532.07C274.125 532.676 265.73 576.259 265.73 576.259C265.73 576.259 252.865 578.024 251.162 577.839C249.149 577.615 256.522 541.79 256.522 539.301C256.522 536.812 256.522 532.07 254.494 532.07C252.465 532.07 213.277 533.124 213.04 529.225C212.7 528.127 212.042 527.128 211.13 526.328" fill="#BAC4F6"/>
<path d="M226.868 515.607C226.868 515.607 215.72 508.639 209.798 508.007C203.876 507.375 196.977 506.703 191.055 505.873C185.133 505.044 177.582 502.699 177.73 499.617C177.878 496.535 178.589 495.06 182.068 493.229C185.002 491.531 188.325 490.437 191.795 490.029C194.401 489.818 221.138 495.995 232.286 510.76L236.728 515.607H226.868Z" fill="#BAC4F6"/>
<path d="M188.301 498.392C188.301 498.392 198.546 498.274 204.157 499.894C208.549 501.352 212.806 503.113 216.889 505.162L233.663 515.554" fill="#BAC4F6"/>
<path d="M188.301 498.392C188.301 498.392 198.546 498.274 204.157 499.894C208.549 501.352 212.806 503.113 216.889 505.162L233.663 515.554" stroke="white" stroke-width="0.229526" stroke-miterlimit="10" stroke-linecap="round"/>
<path d="M238.638 515.211C238.638 515.211 225.669 499.538 220.62 495.126C215.572 490.714 209.665 485.669 204.794 481.059C199.923 476.45 193.779 469.838 196.37 467.125C198.961 464.411 200.811 462.567 205.534 463.173C209.226 463.525 212.762 464.688 215.823 466.558C218.444 468.06 241.984 488.04 245.433 510.997L248.823 515.646L238.638 515.211Z" fill="#BAC4F6"/>
<path d="M208.154 472.459C208.154 472.459 218.251 477.832 222.219 482.995C225.965 487.816 231.901 496.443 231.901 496.443L238.638 512.893" stroke="white" stroke-width="0.229526" stroke-miterlimit="10" stroke-linecap="round"/>
<path d="M245.092 515.923C245.092 515.923 229.947 486.67 227.119 480.888C224.292 475.106 212.729 466.4 210.168 460.5C207.607 454.599 205.978 450.305 208.687 447.065C211.397 443.825 218.37 441.138 222.796 443.114C226.986 444.931 232.434 450.463 234.774 453.269C236.624 455.481 249.031 495.218 248.009 504.385L250.378 516.12L245.092 515.923Z" fill="#E9EDFC"/>
<path d="M218.414 454.019C218.414 454.019 227.105 463.977 229.74 469.824C232.701 476.41 235.662 488.962 235.277 486.947L244.352 514.039" stroke="white" stroke-width="0.229526" stroke-miterlimit="10" stroke-linecap="round"/>
<path d="M236.787 515.765C236.787 515.765 223.463 502.238 216.963 499.617C210.464 496.996 203.076 494.033 196.725 491.214C190.374 488.395 182.749 483.614 184.037 480.743C185.325 477.872 186.658 476.713 191.233 476.173C195.242 475.569 199.346 475.668 203.313 476.463C206.274 477.148 234.107 492.11 241.258 509.877L244.56 516.002L236.787 515.765Z" fill="#E9EDFC"/>
<path d="M196.325 483.18C196.325 483.18 207.858 486.552 213.573 490.002C217.936 492.843 222.072 495.95 225.95 499.301L238.756 515.923" stroke="white" stroke-width="0.229526" stroke-miterlimit="10" stroke-linecap="round"/>
<path d="M271.638 516.068C271.638 516.068 283.703 509.482 290.114 508.81C296.524 508.139 303.957 507.572 310.367 506.769C316.778 505.965 324.95 503.74 324.787 500.789C324.624 497.839 323.869 496.443 320.094 494.678C316.853 493.038 313.272 491.998 309.568 491.622C306.74 491.425 277.811 497.312 265.745 511.379L260.874 516.015L271.638 516.068Z" fill="#BAC4F6"/>
<path d="M313.387 499.617C313.387 499.617 302.313 499.499 296.228 501.053C291.51 502.425 286.909 504.098 282.46 506.058L266.367 515.672" fill="#BAC4F6"/>
<path d="M313.387 499.617C313.387 499.617 302.313 499.499 296.228 501.053C291.51 502.425 286.909 504.098 282.46 506.058L266.367 515.672" stroke="white" stroke-width="0.229526" stroke-miterlimit="10" stroke-linecap="round"/>
<path d="M258.92 515.686C258.92 515.686 272.94 500.723 278.403 496.509C283.866 492.294 290.247 487.473 295.533 483.074C300.818 478.675 307.45 472.366 304.637 469.759C301.825 467.151 299.841 465.399 294.718 465.952C290.782 466.269 286.976 467.372 283.585 469.179C280.757 470.602 255.278 489.699 251.547 511.616L247.891 516.054L258.92 515.686Z" fill="#BAC4F6"/>
<path d="M291.905 474.816C291.905 474.816 280.979 479.94 276.686 484.826C272.63 489.436 266.219 497.668 266.219 497.668L258.92 513.368" stroke="white" stroke-width="0.229526" stroke-miterlimit="10" stroke-linecap="round"/>
<path d="M251.917 516.423C251.917 516.423 268.306 488.488 271.356 482.956C274.406 477.424 286.931 469.153 289.699 463.489C292.468 457.826 294.23 453.743 291.328 450.661C288.426 447.579 280.861 444.997 276.064 446.841C271.534 448.58 265.701 453.861 263.095 456.535C261.082 458.656 247.668 496.588 248.764 505.36L246.203 516.568L251.917 516.423Z" fill="#E9EDFC"/>
<path d="M250.363 516.068C250.363 516.068 251.681 488.817 254.804 479.953C256.922 474.079 258.994 464.148 261.763 458.55C264.531 452.953 260.282 445.59 257.44 442.495C254.597 439.4 247.076 439.992 242.22 441.823C237.69 443.562 235.084 449.186 234.507 452.189C233.989 454.928 244.87 487.816 243.716 499.854L244.648 516.239L250.363 516.068Z" fill="#BAC4F6"/>
<path d="M280.787 457.233C280.787 457.233 271.386 466.743 268.529 472.314C265.301 478.623 262.088 490.595 262.607 488.619L251.962 515.225" stroke="white" stroke-width="0.229526" stroke-miterlimit="10" stroke-linecap="round"/>
<path d="M260.919 516.212C260.919 516.212 275.413 503.292 282.356 500.789C289.3 498.287 297.383 495.521 304.253 492.768C311.122 490.015 319.368 485.511 317.977 482.771C316.585 480.032 315.149 478.926 310.189 478.399C305.846 477.823 301.424 477.916 297.117 478.675C293.86 479.334 263.806 493.611 256.063 510.588L252.495 516.436L260.919 516.212Z" fill="#E9EDFC"/>
<path d="M304.697 485.103C304.697 485.103 292.202 488.33 286.028 491.609C281.367 494.298 276.916 497.264 272.704 500.486L258.58 514.421" stroke="white" stroke-width="0.229526" stroke-miterlimit="10" stroke-linecap="round"/>
<path d="M247.313 447.645C247.313 447.645 249.815 470.997 248.364 477.279C247.757 479.913 248.053 496.338 248.053 496.338L247.535 514.606" stroke="white" stroke-width="0.229526" stroke-miterlimit="10" stroke-linecap="round"/>
<path d="M652.966 437.24H490.29V550.852H652.966V437.24Z" fill="white"/>
<path d="M568.179 503.634C573.575 503.634 577.95 499.742 577.95 494.941C577.95 490.141 573.575 486.249 568.179 486.249C562.782 486.249 558.407 490.141 558.407 494.941C558.407 499.742 562.782 503.634 568.179 503.634Z" fill="#F5F5FC"/>
<path d="M558.008 548.152C558.008 548.152 562.094 557.727 557.43 560.414C552.767 563.101 523.971 573.203 523.971 573.203C523.971 573.203 521.839 576.245 526.932 577.22C531.477 578.103 589.868 577.405 602.437 577.22C603.313 577.274 604.186 577.085 604.936 576.679C605.686 576.274 606.277 575.671 606.627 574.955C606.923 574.02 606.553 572.992 604.317 572.321C600.453 571.083 586.24 564.194 580.022 561.217C577.831 560.164 577.239 558.136 576.81 556.278C576.099 553.289 575.566 549.983 577.935 549.35C581.636 548.363 558.23 549.653 558.23 549.653" fill="white"/>
<path d="M434.654 425.583L857.806 424.978L856.947 362.007L410.67 365.076L410.403 425.583H434.654Z" fill="#E9EDFA"/>
<path d="M646.319 373.308V416.667L845.414 416.061V373.914L646.319 373.308Z" fill="#BAC5F4"/>
<path d="M433.499 373.308V416.667L632.594 416.061V373.914L433.499 373.308Z" fill="#BAC5F4"/>
<path d="M433.514 383.753H443.892L443.996 416.772L433.499 416.667L433.514 383.753Z" fill="white"/>
<path d="M444.084 389.535H451.072L451.324 416.627L443.996 416.772L444.084 389.535Z" fill="#F5F5FC"/>
<path d="M619.685 383.502H625.784L625.843 416.509L619.685 416.416V383.502Z" fill="white"/>
<path d="M625.932 389.284H632.92L633.172 416.377L625.843 416.509L625.932 389.284Z" fill="#F5F5FC"/>
<path d="M451.635 385.294H458.623L458.875 416.706L451.546 416.864L451.635 385.294Z" fill="#F5F5FC"/>
<path d="M458.475 392.84L462.057 390.285L480.193 413.848L476.285 416.667L458.475 392.84Z" fill="white"/>
<path d="M543.129 416.509H586.773L586.551 412.149L543.129 412.36V416.509Z" fill="white"/>
<path d="M550.472 412.241H594.131L593.894 407.882L550.472 408.092V412.241Z" fill="#E9EDFA"/>
<path d="M653.306 382.172H659.436L659.495 416.917L653.292 416.812L653.306 382.172Z" fill="white"/>
<path d="M659.569 389.574H666.542L666.793 416.654L659.465 416.798L659.569 389.574Z" fill="#F5F5FC"/>
<path d="M832.179 383.331H838.278L838.337 416.337L832.179 416.245V383.331Z" fill="white"/>
<path d="M838.249 388.639L845.518 388.705L845.799 416.074L838.367 416.166L838.249 388.639Z" fill="#F5F5FC"/>
<path d="M825.205 391.392H832.193L832.474 416.324L825.028 416.403L825.205 391.392Z" fill="#F5F5FC"/>
<path d="M646.259 385.373H653.247L653.499 416.785L646.171 416.943L646.259 385.373Z" fill="#F5F5FC"/>
<path d="M718.67 392.933L722.252 390.378L740.388 413.94L736.48 416.759L718.67 392.933Z" fill="white"/>
<path d="M689.09 416.601H732.749L732.512 412.241L689.09 412.452V416.601Z" fill="white"/>
<path d="M686.691 412.492H730.336L730.099 408.132L686.691 408.343V412.492Z" fill="#E9EDFA"/>
<path d="M857.406 358.807L856.977 308.349H1253.73L1254.71 428.916L857.746 431.8L857.406 363.298" fill="#E9EDFA"/>
<path d="M574.826 329.475C574.826 329.475 571.006 328.343 570.695 327.5C570.385 326.657 569.111 321.836 571.643 321.836H593.288C593.288 321.836 596.782 326.933 592.34 328.066C587.899 329.199 591.703 331.174 592.977 331.174C594.25 331.174 597.107 331.174 597.744 332.584C598.38 333.993 598.336 363.693 598.336 363.693H566.239V334.862C566.231 334.452 566.316 334.045 566.489 333.664C566.662 333.284 566.919 332.938 567.245 332.648C567.571 332.358 567.959 332.13 568.387 331.976C568.814 331.822 569.272 331.747 569.733 331.754C573.242 331.741 575.788 330.898 574.826 329.475Z" fill="#E9EDFA"/>
<path d="M593.495 340.894H570.977V353.315H593.495V340.894Z" fill="white"/>
<path d="M611.512 329.475C611.512 329.475 607.693 328.343 607.382 327.5C607.071 326.657 605.798 321.836 608.329 321.836H629.974C629.974 321.836 633.468 326.933 629.026 328.066C624.585 329.199 628.39 331.174 629.663 331.174C630.936 331.174 633.794 331.174 634.43 332.584C635.067 333.993 635.022 363.693 635.022 363.693H602.925V334.862C602.917 334.452 603.002 334.045 603.175 333.664C603.348 333.284 603.605 332.938 603.931 332.648C604.257 332.358 604.645 332.13 605.073 331.976C605.5 331.822 605.958 331.747 606.419 331.754C610.032 331.741 612.519 330.898 611.512 329.475Z" fill="#BAC5F4"/>
<path d="M630.226 340.894H607.708V353.315H630.226V340.894Z" fill="white"/>
<path d="M649.502 329.12C649.502 329.12 645.682 327.987 645.371 327.144C645.06 326.301 643.787 321.48 646.318 321.48H667.963C667.963 321.48 671.457 326.578 667.016 327.71C662.574 328.843 666.379 330.819 667.652 330.819C668.926 330.819 671.783 330.819 672.419 332.228C673.056 333.637 673.012 363.338 673.012 363.338H640.915V334.506C640.907 334.096 640.991 333.689 641.164 333.309C641.337 332.928 641.594 332.583 641.92 332.293C642.246 332.003 642.635 331.774 643.062 331.62C643.49 331.467 643.948 331.391 644.409 331.398C647.903 331.385 650.449 330.542 649.502 329.12Z" fill="#E9EDFA"/>
<path d="M668.17 340.526H645.652V352.946H668.17V340.526Z" fill="white"/>
<path d="M1054.37 320.611H871.056V420.21H1054.37V320.611Z" fill="#BAC5F4"/>
<path d="M1074 380.104C1078.42 380.104 1082 376.92 1082 372.992C1082 369.064 1078.42 365.88 1074 365.88C1069.59 365.88 1066.01 369.064 1066.01 372.992C1066.01 376.92 1069.59 380.104 1074 380.104Z" fill="#BAC5F4"/>
<path d="M993.477 386.031C993.477 386.031 989.657 384.898 989.347 384.055C989.036 383.213 987.762 378.392 990.294 378.392H1011.94C1011.94 378.392 1015.43 383.489 1010.99 384.622C1006.55 385.755 1010.35 387.73 1011.63 387.73C1012.9 387.73 1015.76 387.73 1016.39 389.139C1017.03 390.549 1016.99 420.249 1016.99 420.249H984.89V391.405C984.882 390.995 984.967 390.587 985.14 390.207C985.313 389.827 985.57 389.481 985.896 389.191C986.222 388.901 986.61 388.672 987.038 388.519C987.465 388.365 987.923 388.289 988.384 388.297C991.849 388.297 994.395 387.44 993.477 386.031Z" fill="white"/>
<path d="M1012.1 397.437H989.584V409.857H1012.1V397.437Z" fill="#F5F5FC"/>
<g clip-path="url(#clip0)">
<path d="M134.493 589.16C113.732 466.084 67.3485 455.355 31.6813 393.232C-0.789853 336.723 -26.9762 244.279 64.6628 178.189C207.009 75.4456 381.585 180.578 381.585 180.578C381.585 180.578 658.221 321.551 706.565 328.719C754.909 335.887 873.084 407.568 1020.8 321.551C1168.52 235.533 1294.75 242.702 1335.04 307.215C1375.33 371.728 1284.01 558.098 1262.52 596.328C1241.04 634.558 1273.27 754.027 1308.18 801.814C1343.1 849.602 1453.21 997.743 1216.86 992.964C980.515 988.185 271.468 995.353 271.468 995.353C271.468 995.353 16.9364 991.124 61.977 770.752C99.578 586.771 142.551 636.948 134.493 589.16Z" fill="#F8F8FF"/>
<path d="M225.81 572.436C255.476 572.436 279.525 551.041 279.525 524.648C279.525 498.256 255.476 476.861 225.81 476.861C196.143 476.861 172.094 498.256 172.094 524.648C172.094 551.041 196.143 572.436 225.81 572.436Z" fill="#BAC5F4"/>
<path d="M135.836 615.444C155.861 615.444 172.094 601.003 172.094 583.188C172.094 565.373 155.861 550.931 135.836 550.931C115.811 550.931 99.5779 565.373 99.5779 583.188C99.5779 601.003 115.811 615.444 135.836 615.444Z" fill="#BAC5F4"/>
<path d="M141.208 527.038C152.332 527.038 161.351 519.015 161.351 509.118C161.351 499.22 152.332 491.197 141.208 491.197C130.083 491.197 121.064 499.22 121.064 509.118C121.064 519.015 130.083 527.038 141.208 527.038Z" fill="#BAC5F4"/>
<path d="M41.8335 300.048C52.9584 300.048 61.9769 292.024 61.9769 282.127C61.9769 272.23 52.9584 264.207 41.8335 264.207C30.7086 264.207 21.6901 272.23 21.6901 282.127C21.6901 292.024 30.7086 300.048 41.8335 300.048Z" fill="#BAC5F4"/>
<path d="M377.557 928.452C430.214 928.452 472.902 890.476 472.902 843.629C472.902 796.783 430.214 758.807 377.557 758.807C324.899 758.807 282.211 796.783 282.211 843.629C282.211 890.476 324.899 928.452 377.557 928.452Z" fill="#E1E6FB"/>
<path d="M1007.37 969.071C1042.97 969.071 1071.83 943.397 1071.83 911.726C1071.83 880.056 1042.97 854.381 1007.37 854.381C971.773 854.381 942.914 880.056 942.914 911.726C942.914 943.397 971.773 969.071 1007.37 969.071Z" fill="#E1E6FB"/>
<path d="M993.944 398.012C1032.51 398.012 1063.77 370.198 1063.77 335.888C1063.77 301.578 1032.51 273.765 993.944 273.765C955.378 273.765 924.114 301.578 924.114 335.888C924.114 370.198 955.378 398.012 993.944 398.012Z" fill="#E1E6FB"/>
<path d="M353.384 199.694C371.926 199.694 386.957 186.322 386.957 169.827C386.957 153.332 371.926 139.96 353.384 139.96C334.843 139.96 319.812 153.332 319.812 169.827C319.812 186.322 334.843 199.694 353.384 199.694Z" fill="#E1E6FB"/>
<path d="M245.953 794.647C264.495 794.647 279.525 781.275 279.525 764.78C279.525 748.285 264.495 734.913 245.953 734.913C227.412 734.913 212.381 748.285 212.381 764.78C212.381 781.275 227.412 794.647 245.953 794.647Z" fill="#E1E6FB"/>
</g>
<g clip-path="url(#clip1)">
<path d="M22.023 462.053C22.023 462.053 -101.62 87.8557 236.205 69.0227C574.03 50.1897 511.669 149.135 811.616 88.0005C1111.56 26.8657 1116.64 -15.2912 1272.78 45.6987C1428.91 106.689 1439.07 264.017 1406.43 343.984C1373.79 423.952 1308.19 487.26 1313.12 531.88C1318.05 576.5 1424.14 691.236 1438.15 768.741C1445.85 811.043 1423.52 883.188 1402.58 886.23C1247.22 909.554 623.149 871.163 623.149 871.163L260.841 856.097L66.9843 831.18C66.9843 831.18 73.6053 726.584 72.9894 643.864C72.3735 558.97 22.023 462.053 22.023 462.053Z" fill="#F8F8FF"/>
<path d="M67.7542 819.734C67.7542 819.734 25.5645 984.016 257.3 972.861C489.035 961.706 486.417 937.513 632.695 980.249C778.973 1022.99 870.127 1039.94 983.146 1006.33C1096.17 972.716 1099.09 978.366 1242.6 978.366C1386.1 978.366 1435.22 834.366 1438.92 814.664C1443.38 791.485 1433.07 715.428 1412.43 715.284C1260.77 713.545 321.354 706.157 247.291 725.424C183.699 741.94 107.172 796.99 70.3718 811.622" fill="#F5F5FC"/>
<path d="M95.4699 675.445L238.668 620.394L241.132 69.3119C241.132 69.3119 135.504 75.6861 93.9302 113.352L95.4699 675.445Z" fill="#E9EDFB"/>
<path d="M93.9302 113.352L97.4717 674.72L72.3735 684.571C72.3735 684.571 75.9149 659.074 69.7558 603.59C64.0587 551.871 5.85546 426.414 1.54411 378.463C-1.53543 344.418 0.158314 205.779 36.1889 164.636C69.4479 126.825 93.9302 113.352 93.9302 113.352Z" fill="#E9EDFB"/>
<path d="M170.641 276.905C186.978 274.227 198.625 263.431 196.655 252.789C194.685 242.148 179.844 235.692 163.507 238.369C147.17 241.046 135.523 251.843 137.493 262.484C139.463 273.126 154.304 279.582 170.641 276.905Z" fill="white"/>
<path d="M204.004 267.398C217.325 265.215 226.822 256.416 225.217 247.745C223.612 239.075 211.512 233.815 198.191 235.998C184.87 238.181 175.372 246.98 176.977 255.651C178.582 264.322 190.682 269.581 204.004 267.398Z" fill="white"/>
<path d="M34.9805 345.014C51.3171 342.334 62.965 331.535 60.9969 320.894C59.0288 310.252 44.19 303.798 27.8534 306.478C11.5168 309.157 -0.131104 319.957 1.83699 330.598C3.80509 341.24 18.644 347.694 34.9805 345.014Z" fill="white"/>
<path d="M63.8821 326.797C77.2032 324.614 86.7008 315.815 85.0956 307.144C83.4904 298.473 71.3903 293.214 58.0692 295.397C44.7481 297.58 35.2505 306.379 36.8557 315.049C38.4609 323.72 50.561 328.98 63.8821 326.797Z" fill="white"/>
<path d="M106.094 104.37L113.331 100.604L113.639 100.459L118.105 98.2857L122.416 96.4024L129.653 662.117L114.563 668.056L106.094 104.37Z" fill="white"/>
<path d="M50.9707 533.473L49.277 528.113C48.969 528.258 48.0452 524.201 47.8912 524.201L46.0435 519.855L44.3497 515.074L239.746 445.682L240.362 461.183L50.9707 533.473Z" fill="white"/>
<path d="M3.39184 390.487L2.77593 387.445C2.46798 386.575 2.00605 382.954 1.69809 382.085L0.928209 376.145L0.158325 371.799L241.132 285.167L240.362 300.378L3.39184 390.487Z" fill="white"/>
<path d="M267.924 821.763L269.464 569.69H304.879V823.211L267.924 821.763Z" fill="white"/>
<path d="M1085.54 565.199L1087.08 824.66H1117.88L1118.49 566.358L1085.54 565.199Z" fill="white"/>
<path d="M160.14 539.268V569.69L1219.5 566.793V540.716L160.14 539.268Z" fill="white"/>
<path d="M160.14 539.268L235.589 517.537L1133.27 518.986L1219.5 540.716L160.14 539.268Z" fill="#BAC5F4"/>
<path d="M426 534.575L443.707 524.435L525.469 524L513.151 533.851L426 534.575Z" fill="#F8F8FF"/>
<path d="M1073.22 375H904V500.022H1073.22V375Z" fill="white"/>
<path d="M984.992 448.014C990.604 448.014 995.154 443.733 995.154 438.453C995.154 433.172 990.604 428.891 984.992 428.891C979.379 428.891 974.829 433.172 974.829 438.453C974.829 443.733 979.379 448.014 984.992 448.014Z" fill="#F5F5FC"/>
<path d="M974.367 496.98C974.367 496.98 978.679 507.555 973.752 510.453C968.824 513.35 938.953 524.505 938.953 524.505C938.953 524.505 936.797 527.837 942.032 528.851C946.806 529.865 1007.47 528.996 1020.56 528.851C1022.41 528.996 1024.1 527.982 1024.87 526.388C1025.18 525.374 1024.72 524.215 1022.41 523.491C1018.4 522.187 1003.62 514.509 997.156 511.322C994.846 510.163 994.231 507.99 993.769 505.817C992.999 502.485 992.537 498.863 995 498.139C998.85 496.98 974.521 498.429 974.521 498.429" fill="white"/>
<path d="M450.387 366.004L890.452 365.425L889.682 296.177L425.442 299.509L425.134 366.004H450.387Z" fill="#E9EDFA"/>
<path d="M670.573 308.636V356.298L877.672 355.573V309.215L670.573 308.636Z" fill="#BAC5F4"/>
<path d="M449.155 308.636V356.298L656.254 355.573V309.215L449.155 308.636Z" fill="#BAC5F4"/>
<path d="M449.155 320.08H460.087V356.443L449.155 356.298V320.08Z" fill="white"/>
<path d="M460.241 326.455H467.478L467.786 356.298L460.087 356.443L460.241 326.455Z" fill="#F5F5FC"/>
<path d="M642.858 319.791H649.171V356.153L642.858 356.008V319.791Z" fill="white"/>
<path d="M649.325 326.165H656.561L656.869 356.008L649.171 356.153L649.325 326.165Z" fill="#F5F5FC"/>
<path d="M468.094 321.819H475.331L475.639 356.298L467.94 356.443L468.094 321.819Z" fill="#F5F5FC"/>
<path d="M475.177 330.077L478.872 327.324L497.811 353.111L493.654 356.298L475.177 330.077Z" fill="white"/>
<path d="M563.251 356.153H608.675L608.367 351.227L563.251 351.517V356.153Z" fill="white"/>
<path d="M570.796 351.372H616.22L616.066 346.592L570.796 346.881V351.372Z" fill="#E9EDFA"/>
<path d="M677.81 318.342H684.124L684.278 356.588L677.81 356.443V318.342Z" fill="white"/>
<path d="M684.277 326.455H691.514L691.822 356.298L684.277 356.443V326.455Z" fill="#F5F5FC"/>
<path d="M863.814 319.646H870.127L870.282 355.863H863.814V319.646Z" fill="white"/>
<path d="M870.127 325.441H877.672L877.98 355.573L870.281 355.718L870.127 325.441Z" fill="#F5F5FC"/>
<path d="M856.577 328.483H863.814L864.122 355.863L856.423 356.008L856.577 328.483Z" fill="#F5F5FC"/>
<path d="M670.42 321.819H677.81L677.964 356.443L670.42 356.588V321.819Z" fill="#F5F5FC"/>
<path d="M745.868 330.221L749.564 327.324L768.349 353.256L764.345 356.298L745.868 330.221Z" fill="white"/>
<path d="M715.073 356.153H760.496L760.188 351.372L715.073 351.662V356.153Z" fill="white"/>
<path d="M712.609 351.662H757.878L757.724 346.881L712.609 347.171V351.662Z" fill="#E9EDFA"/>
<path d="M890.144 292.555L889.683 237.07H1302.34L1303.26 369.771L890.452 372.958L890.144 297.626" fill="#E9EDFA"/>
<path d="M596.203 260.394C596.203 260.394 592.199 259.091 591.891 258.221C591.583 257.352 590.198 251.992 592.815 251.992H615.296C615.296 251.992 618.991 257.642 614.372 258.801C609.753 259.96 613.756 262.278 614.988 262.278C616.22 262.278 619.299 262.278 619.915 263.871C620.531 265.465 620.531 298.06 620.531 298.06H587.118V266.334C587.118 264.451 588.658 263.002 590.659 262.857H590.813C594.509 262.857 597.127 261.988 596.203 260.394Z" fill="#E9EDFA"/>
<path d="M615.604 272.998H592.199V286.616H615.604V272.998Z" fill="white"/>
<path d="M634.389 260.394C634.389 260.394 630.385 259.091 630.077 258.221C629.77 257.352 628.384 251.992 631.001 251.992H653.482C653.482 251.992 657.177 257.642 652.558 258.801C647.939 259.96 651.942 262.278 653.174 262.278C654.406 262.278 657.485 262.278 658.101 263.871C658.717 265.465 658.717 298.06 658.717 298.06H625.304V266.334C625.304 264.451 626.844 263.002 628.846 262.857H629C632.849 262.857 635.467 261.988 634.389 260.394Z" fill="#BAC5F4"/>
<path d="M653.79 272.998H630.386V286.616H653.79V272.998Z" fill="white"/>
<path d="M673.807 259.96C673.807 259.96 669.804 258.656 669.496 257.787C669.188 256.918 667.802 251.557 670.419 251.557H692.9C692.9 251.557 696.596 257.207 691.976 258.366C687.357 259.525 691.36 261.843 692.592 261.843C693.824 261.843 696.903 261.843 697.519 263.437C698.135 265.03 698.135 297.626 698.135 297.626H664.722V265.899C664.722 264.016 666.262 262.567 668.264 262.423H668.418C672.113 262.423 674.885 261.553 673.807 259.96Z" fill="#E9EDFA"/>
<path d="M693.208 272.563H669.804V286.181H693.208V272.563Z" fill="white"/>
<path d="M1094.93 250.543H904.31V360.064H1094.93V250.543Z" fill="#BAC5F4"/>
<path d="M1115.41 316.024C1120 316.024 1123.73 312.522 1123.73 308.201C1123.73 303.881 1120 300.378 1115.41 300.378C1110.82 300.378 1107.1 303.881 1107.1 308.201C1107.1 312.522 1110.82 316.024 1115.41 316.024Z" fill="#BAC5F4"/>
<path d="M1031.65 322.543C1031.65 322.543 1027.65 321.239 1027.34 320.37C1027.03 319.501 1025.64 314.141 1028.26 314.141H1050.74C1050.74 314.141 1054.44 319.791 1049.82 320.95C1045.2 322.109 1049.2 324.427 1050.43 324.427C1051.67 324.427 1054.75 324.427 1055.36 326.02C1055.98 327.614 1055.98 360.209 1055.98 360.209H1022.56V328.483C1022.56 326.6 1024.1 325.151 1026.11 325.006H1026.26C1029.96 325.006 1032.57 324.137 1031.65 322.543Z" fill="white"/>
<path d="M1050.9 335.147H1027.49V348.765H1050.9V335.147Z" fill="#F5F5FC"/>
<path d="M1297.57 954.175C1297.57 954.175 1307.27 904.774 1256.3 878.263C1205.33 851.752 1203.02 852.042 1193.02 849.144C1187.16 847.261 1181.31 851.173 1187.93 859.14C1194.56 867.108 1190.86 869.136 1204.26 872.613C1217.65 876.09 1219.65 891.446 1226.43 895.213C1233.05 898.979 1238.9 899.994 1259.38 908.396C1278.01 915.929 1293.72 937.225 1293.72 944.758C1293.72 952.291 1311.89 954.754 1311.89 954.754L1297.57 954.175Z" fill="url(#paint0_linear)"/>
<path d="M1295.72 947.221C1295.72 947.221 1308.65 901.732 1264.15 877.104C1219.65 852.477 1203.95 852.766 1195.17 849.869C1190.09 848.13 1203.95 854.07 1209.8 861.314C1215.65 868.557 1214.11 866.963 1224.58 872.468C1236.74 878.698 1241.67 884.927 1248.91 886.086C1259.23 887.969 1256.15 898.11 1274.01 905.643C1290.17 912.597 1292.18 930.996 1292.18 937.949C1292.18 944.903 1308.04 947.221 1308.04 947.221H1295.72Z" fill="url(#paint1_linear)"/>
<path d="M1340.68 940.557L1345.76 936.066C1348.22 934.038 1351.15 932.444 1354.38 931.575C1370.09 927.664 1419.67 913.032 1440.15 877.829C1440.3 877.539 1440.15 877.104 1439.84 876.959H1439.69C1439.53 876.959 1439.53 876.814 1439.38 876.814C1432.6 876.38 1397.34 875.8 1350.23 913.611C1349.46 914.191 1348.53 915.06 1347.92 915.784C1346.68 917.378 1344.84 919.986 1343.91 921.434C1342.68 923.462 1345.14 926.939 1341.91 929.837C1338.68 932.734 1331.44 940.412 1331.44 940.412L1337.29 944.468L1340.68 940.557Z" fill="url(#paint2_linear)"/>
<path d="M1313.73 937.659C1313.73 937.659 1327.28 823.937 1290.33 788.154C1256.3 755.269 1255.84 785.546 1255.99 790.617C1255.99 791.051 1256.15 791.486 1256.3 791.92C1264.31 805.973 1267.08 822.198 1264.15 837.844C1260.61 854.359 1285.71 852.186 1287.87 868.411C1290.02 884.637 1298.8 909.554 1297.87 921.144C1296.95 932.588 1296.95 943.743 1296.95 943.743L1310.5 944.178L1313.73 937.659Z" fill="url(#paint3_linear)"/>
<path d="M1313.58 938.094C1313.73 937.804 1313.73 937.515 1313.89 937.37C1314.66 929.981 1326.05 822.778 1290.48 788.155C1256.76 755.414 1256.3 785.112 1256.45 790.472C1256.61 791.052 1256.92 791.776 1257.22 792.211C1259.69 795.688 1270.77 810.464 1280.78 808.871C1308.04 804.235 1284.02 835.237 1298.8 851.752C1310.65 864.79 1306.65 909.845 1305.88 921.434C1305.26 927.953 1304.19 934.327 1302.49 940.702C1302.18 942.295 1303.26 943.889 1304.96 944.179C1305.11 944.179 1305.11 944.179 1305.26 944.179C1305.57 944.179 1305.73 944.323 1305.88 944.323H1308.34C1309.88 944.468 1311.12 943.744 1311.89 942.44L1313.58 938.094Z" fill="url(#paint4_linear)"/>
<path d="M1326.98 944.613C1326.98 944.613 1329.44 913.032 1348.99 893.909C1354.38 888.694 1361.31 884.927 1369.01 883.334C1374.86 882.03 1384.41 877.684 1392.72 862.907C1392.72 862.907 1408.43 841.901 1424.29 835.527C1439.99 829.152 1424.29 828.428 1424.29 828.428C1424.29 828.428 1379.17 836.541 1350.38 861.313C1348.53 862.907 1346.68 864.356 1344.53 865.515C1336.98 870.295 1316.35 888.549 1317.27 941.426L1326.98 944.613Z" fill="url(#paint5_linear)"/>
<path d="M1366.09 942.15C1366.09 942.15 1366.7 938.384 1361.31 938.384C1356.54 938.529 1277.09 937.949 1277.09 937.949C1277.09 937.949 1273.39 937.949 1273.7 940.557C1274.01 943.164 1286.02 1005.46 1287.1 1006.91C1287.56 1007.63 1288.48 1008.36 1289.4 1008.5C1290.94 1008.94 1346.68 1008.65 1346.68 1008.65C1348.07 1008.5 1348.99 1007.49 1349.15 1006.18C1348.99 1006.33 1366.24 942.875 1366.09 942.15Z" fill="url(#paint6_linear)"/>
<path d="M124.566 954.175C124.566 954.175 134.266 904.774 83.3 878.263C32.3334 851.752 30.0238 852.042 20.0153 849.145C14.1641 847.261 8.31302 851.173 14.9341 859.141C21.5551 867.108 17.8596 869.137 31.2556 872.613C44.6517 876.09 46.6534 891.447 53.4284 895.213C60.0494 898.98 65.9005 899.994 86.3795 908.396C105.011 915.929 120.716 937.225 120.716 944.758C120.716 952.292 138.886 954.754 138.886 954.754L124.566 954.175Z" fill="url(#paint7_linear)"/>
<path d="M122.718 947.221C122.718 947.221 135.652 901.732 91.1527 877.105C46.6533 852.477 30.9476 852.766 22.1709 849.869C17.0896 848.131 30.9476 854.07 36.7987 861.314C42.6498 868.557 41.1101 866.964 51.5806 872.469C63.7447 878.698 68.672 884.927 75.9089 886.086C86.2254 887.97 83.1458 898.111 101.007 905.644C117.175 912.597 119.176 930.996 119.176 937.95C119.176 944.903 135.036 947.221 135.036 947.221H122.718Z" fill="url(#paint8_linear)"/>
<path d="M167.679 940.557L172.761 936.066C175.224 934.038 178.15 932.445 181.383 931.575C197.089 927.664 246.669 913.032 267.148 877.829C267.302 877.539 267.148 877.104 266.84 876.96H266.686C266.532 876.96 266.532 876.815 266.378 876.815C259.603 876.38 224.343 875.801 177.226 913.611C176.456 914.191 175.532 915.06 174.916 915.785C173.684 917.378 171.837 919.986 170.913 921.434C169.681 923.463 172.145 926.939 168.911 929.837C165.678 932.734 158.441 940.412 158.441 940.412L164.292 944.469L167.679 940.557Z" fill="url(#paint9_linear)"/>
<path d="M140.733 937.659C140.733 937.659 154.283 823.937 117.329 788.154C83.3003 755.269 82.8383 785.546 82.9923 790.617C82.9923 791.051 83.1463 791.486 83.3003 791.921C91.307 805.973 94.0786 822.198 91.1531 837.844C87.6116 854.359 112.71 852.186 114.865 868.412C117.021 884.637 125.798 909.555 124.874 921.144C123.95 932.589 123.95 943.744 123.95 943.744L137.5 944.178L140.733 937.659Z" fill="url(#paint10_linear)"/>
<path d="M140.579 938.094C140.733 937.805 140.733 937.515 140.887 937.37C141.657 929.982 153.051 822.778 117.483 788.155C83.7619 755.414 83.3 785.113 83.454 790.473C83.608 791.052 83.9159 791.776 84.2239 792.211C86.6875 795.688 97.7738 810.465 107.782 808.871C135.036 804.235 111.016 835.237 125.798 851.752C137.654 864.791 133.65 909.845 132.88 921.434C132.264 927.953 131.187 934.328 129.493 940.702C129.185 942.296 130.263 943.889 131.957 944.179C132.111 944.179 132.11 944.179 132.264 944.179C132.572 944.179 132.726 944.324 132.88 944.324H135.344C136.884 944.469 138.116 943.744 138.886 942.44L140.579 938.094Z" fill="url(#paint11_linear)"/>
<path d="M153.975 944.614C153.975 944.614 156.439 913.032 175.994 893.909C181.383 888.694 188.312 884.927 196.011 883.334C201.862 882.03 211.409 877.684 219.723 862.907C219.723 862.907 235.429 841.901 251.289 835.527C266.994 829.153 251.289 828.428 251.289 828.428C251.289 828.428 206.173 836.541 177.38 861.314C175.532 862.907 173.684 864.356 171.528 865.515C163.984 870.296 143.351 888.549 144.275 941.426L153.975 944.614Z" fill="url(#paint12_linear)"/>
<path d="M193.085 942.151C193.085 942.151 193.701 938.384 188.312 938.384C183.539 938.529 104.087 937.949 104.087 937.949C104.087 937.949 100.391 937.949 100.699 940.557C101.007 943.165 113.018 1005.46 114.095 1006.91C114.557 1007.63 115.481 1008.36 116.405 1008.5C117.945 1008.94 173.684 1008.65 173.684 1008.65C175.07 1008.5 175.994 1007.49 176.148 1006.18C175.994 1006.33 193.239 942.875 193.085 942.151Z" fill="url(#paint13_linear)"/>
<path d="M256.686 494.137C256.686 494.137 263.984 456.471 225.641 436.258C187.297 416.045 185.56 416.265 178.03 414.056C173.628 412.62 169.226 415.603 174.207 421.678C179.189 427.753 176.408 429.299 186.486 431.95C196.565 434.601 198.071 446.309 203.168 449.181C208.149 452.053 212.551 452.826 227.958 459.233C241.974 464.976 253.79 481.213 253.79 486.957C253.79 492.701 267.46 494.578 267.46 494.578L256.686 494.137Z" fill="url(#paint14_linear)"/>
<path d="M255.296 488.835C255.296 488.835 265.027 454.152 231.549 435.374C198.071 416.597 186.255 416.818 179.652 414.609C175.829 413.283 186.255 417.812 190.657 423.335C195.059 428.857 193.9 427.642 201.777 431.84C210.929 436.589 214.636 441.339 220.08 442.223C227.842 443.658 225.525 451.39 238.962 457.134C251.126 462.436 252.632 476.464 252.632 481.766C252.632 487.068 264.563 488.835 264.563 488.835H255.296Z" fill="url(#paint15_linear)"/>
<path d="M289.122 483.754L292.944 480.33C294.798 478.783 296.999 477.568 299.431 476.906C311.247 473.923 348.548 462.767 363.955 435.927C364.07 435.706 363.955 435.374 363.723 435.264H363.607C363.491 435.264 363.491 435.153 363.375 435.153C358.278 434.822 331.751 434.38 296.304 463.209C295.724 463.651 295.029 464.314 294.566 464.866C293.639 466.081 292.249 468.069 291.554 469.174C290.627 470.72 292.481 473.371 290.048 475.58C287.616 477.789 282.171 483.643 282.171 483.643L286.573 486.736L289.122 483.754Z" fill="url(#paint16_linear)"/>
<path d="M268.849 481.544C268.849 481.544 279.043 394.837 251.242 367.554C225.641 342.481 225.293 365.566 225.409 369.432C225.409 369.763 225.525 370.095 225.641 370.426C231.665 381.14 233.75 393.511 231.549 405.44C228.885 418.032 247.766 416.375 249.388 428.746C251.01 441.117 257.613 460.116 256.918 468.952C256.223 477.678 256.223 486.183 256.223 486.183L266.417 486.515L268.849 481.544Z" fill="url(#paint17_linear)"/>
<path d="M268.733 481.876C268.849 481.655 268.849 481.434 268.965 481.324C269.544 475.691 278.117 393.953 251.357 367.555C225.988 342.592 225.641 365.235 225.757 369.322C225.873 369.764 226.104 370.316 226.336 370.647C228.189 373.298 236.53 384.565 244.059 383.35C264.563 379.815 246.492 403.453 257.613 416.045C266.532 425.986 263.521 460.337 262.941 469.174C262.478 474.144 261.667 479.004 260.393 483.864C260.161 485.079 260.972 486.294 262.246 486.515C262.362 486.515 262.362 486.515 262.478 486.515C262.71 486.515 262.826 486.626 262.941 486.626H264.795C265.953 486.736 266.88 486.184 267.459 485.19L268.733 481.876Z" fill="url(#paint18_linear)"/>
<path d="M278.812 486.847C278.812 486.847 280.665 462.767 295.377 448.187C299.431 444.211 304.644 441.339 310.436 440.124C314.838 439.13 322.02 435.816 328.276 424.55C328.276 424.55 340.091 408.534 352.023 403.673C363.839 398.813 352.023 398.261 352.023 398.261C352.023 398.261 318.082 404.447 296.419 423.335C295.029 424.55 293.639 425.654 292.017 426.538C286.341 430.183 270.819 444.1 271.514 484.417L278.812 486.847Z" fill="url(#paint19_linear)"/>
<path d="M308.235 484.969C308.235 484.969 308.698 482.097 304.644 482.097C301.053 482.207 241.279 481.765 241.279 481.765C241.279 481.765 238.499 481.765 238.731 483.754C238.962 485.742 247.998 533.238 248.809 534.342C249.156 534.895 249.852 535.447 250.547 535.557C251.705 535.889 293.639 535.668 293.639 535.668C294.682 535.557 295.377 534.784 295.493 533.79C295.377 533.901 308.351 485.521 308.235 484.969Z" fill="url(#paint20_linear)"/>
<path d="M614.332 531.557L742.903 526.487L761.996 442.173L631.424 443.187L611.869 531.413" fill="url(#paint21_linear)"/>
<path d="M688.549 497.223C692.886 497.223 696.402 493.721 696.402 489.401C696.402 485.08 692.886 481.578 688.549 481.578C684.212 481.578 680.696 485.08 680.696 489.401C680.696 493.721 684.212 497.223 688.549 497.223Z" fill="white"/>
<path d="M613.1 525.328L542.887 525.183C542.425 525.183 542.117 525.473 541.963 525.908L541.039 529.819C540.885 530.254 541.193 530.688 541.809 530.833C541.963 530.833 541.963 530.833 541.963 530.833L611.868 531.413C612.33 531.413 612.638 531.123 612.792 530.688L614.024 526.197C614.178 525.763 613.87 525.328 613.408 525.183C613.254 525.328 613.254 525.328 613.1 525.328Z" fill="url(#paint22_linear)"/>
<path d="M629.268 440.869L759.84 440C759.994 440 760.148 440.145 760.302 440.29L761.996 442.173L631.886 443.187C631.578 443.187 631.424 443.332 631.27 443.622L614.332 530.978C614.332 531.268 614.024 531.413 613.716 531.413H612.638C612.331 531.413 612.023 531.123 612.023 530.833C612.023 530.833 612.023 530.833 612.023 530.688L628.19 441.738C628.19 441.304 628.652 440.869 629.268 440.869Z" fill="url(#paint23_linear)"/>
<path d="M1055.67 484.942L1046.74 532.604C1046.74 532.604 1058.29 530.72 1063.83 532.604L1055.67 484.942Z" fill="url(#paint24_linear)"/>
<path d="M1055.67 484.942L1063.83 532.604C1063.83 532.604 1098.17 528.547 1124.5 532.314L1115.1 485.087L1055.67 484.942Z" fill="#FCFCFC"/>
<path d="M1089.85 509.135L1081.54 509.28L1080.46 503.05H1088.62L1089.85 509.135Z" fill="#58CAEA"/>
<path d="M1103.09 508.845L1094.78 508.99L1093.55 502.616H1101.71L1103.09 508.845Z" fill="#58CAEA"/>
<path d="M1115.57 508.845L1107.25 508.99L1106.02 502.761H1114.18L1115.57 508.845Z" fill="#58CAEA"/>
<path d="M1117.11 517.392L1108.95 517.537L1107.71 511.163H1115.72L1117.11 517.392Z" fill="#58CAEA"/>
<path d="M1091.7 517.247L1083.39 517.392L1082.15 511.163L1090.31 511.018L1091.7 517.247Z" fill="#58CAEA"/>
<path d="M1078.92 517.682L1070.61 517.827L1069.37 511.453H1077.53L1078.92 517.682Z" fill="#58CAEA"/>
<path d="M1080.92 526.374L1072.61 526.519L1071.38 520.29H1079.54L1080.92 526.374Z" fill="#58CAEA"/>
<path d="M1093.7 526.229L1085.39 526.374L1084.16 520.145L1092.32 520L1093.7 526.229Z" fill="#58CAEA"/>
<path d="M1106.79 526.229L1098.48 526.374L1097.24 520H1105.4L1106.79 526.229Z" fill="#58CAEA"/>
<path d="M1104.79 517.247L1096.47 517.392L1095.24 511.163L1103.4 511.018L1104.79 517.247Z" fill="url(#paint25_linear)"/>
<path d="M1055.67 484.942L1057.98 498.559L1117.88 498.27L1115.1 485.087L1055.67 484.942Z" fill="url(#paint26_linear)"/>
<path d="M1071.99 481.899L1076.61 481.755L1077.07 487.839H1072.61L1071.99 481.899Z" fill="url(#paint27_linear)"/>
<path d="M1100.48 482.188L1104.33 482.043L1104.79 487.693H1100.94L1100.48 482.188Z" fill="url(#paint28_linear)"/>
<path d="M810.538 282.27H837.792C838.1 282.27 838.254 282.414 838.254 282.704C838.254 282.994 838.1 283.139 837.792 283.139H810.538C810.231 283.139 810.076 282.994 810.076 282.704C810.076 282.559 810.231 282.27 810.538 282.27Z" fill="#F4F4F4"/>
<path d="M810.538 283.863H837.792C838.1 283.863 838.254 284.008 838.254 284.298C838.254 284.588 838.1 284.732 837.792 284.732H810.538C810.231 284.732 810.076 284.588 810.076 284.298C810.076 284.008 810.231 283.863 810.538 283.863Z" fill="#F4F4F4"/>
<path d="M810.538 285.457H837.792C838.1 285.457 838.254 285.602 838.254 285.891C838.254 286.181 838.1 286.326 837.792 286.326H810.538C810.231 286.326 810.076 286.181 810.076 285.891C810.076 285.602 810.231 285.457 810.538 285.457Z" fill="#F4F4F4"/>
<path d="M816.697 290.382H841.488C841.796 290.382 841.95 290.527 841.95 290.817C841.95 291.107 841.796 291.252 841.488 291.252H816.697C816.389 291.252 816.235 291.107 816.235 290.817C816.235 290.527 816.543 290.382 816.697 290.382Z" fill="#F4F4F4"/>
<path d="M816.697 291.976H841.488C841.796 291.976 841.95 292.121 841.95 292.41C841.95 292.7 841.796 292.845 841.488 292.845H816.697C816.389 292.845 816.235 292.7 816.235 292.41C816.235 292.121 816.543 291.976 816.697 291.976Z" fill="#F4F4F4"/>
<path d="M816.697 293.425H841.488C841.796 293.425 841.95 293.569 841.95 293.859C841.95 294.149 841.796 294.294 841.488 294.294H816.697C816.389 294.294 816.235 294.149 816.235 293.859C816.235 293.714 816.543 293.425 816.697 293.425Z" fill="#F4F4F4"/>
<path d="M774.046 280.676C774.046 280.676 770.351 280.966 770.351 284.443C770.351 287.92 774.2 288.064 774.2 288.064L838.87 288.209V287.195H809.923C809.923 287.195 808.999 287.34 809.153 286.036V282.415C809.153 281.98 809.461 281.69 809.923 281.545C811.154 281.545 838.254 281.835 838.254 281.835V280.531L774.046 280.676Z" fill="url(#paint29_linear)"/>
<path d="M776.663 288.064C776.663 288.064 772.66 288.499 772.66 292.266C772.66 295.598 775.432 296.322 776.202 296.467C776.356 296.467 776.509 296.467 776.509 296.467H842.412V295.163H816.852C816.852 295.163 815.158 295.163 815.466 293.569V290.382C815.466 290.382 815.312 289.223 816.698 289.223C817.929 289.223 842.104 289.513 842.104 289.513V287.92L776.663 288.064Z" fill="url(#paint30_linear)"/>
<path d="M813.926 282.27H816.082C816.698 282.704 817.159 283.284 817.313 284.008C817.621 285.167 817.313 285.602 818.083 286.905C818.545 287.775 819.007 288.209 819.315 288.789C819.315 288.934 819.469 289.658 819.469 289.803L819.623 291.831L818.699 291.252L817.775 292.121C817.775 292.121 817.775 289.368 817.467 288.789C817.16 288.209 815.62 286.326 815.774 285.022C816.236 283.718 815.62 283.139 813.926 282.27Z" fill="#F8246A"/>
<path d="M849.495 244.601H854.422C855.654 244.601 856.577 245.47 856.577 246.629V295.595C856.577 296.754 855.654 297.623 854.422 297.623H849.495C848.263 297.623 847.339 296.754 847.339 295.595V246.629C847.339 245.47 848.263 244.601 849.495 244.601Z" fill="url(#paint31_linear)"/>
<path d="M745.714 244.169H750.642C751.873 244.169 752.797 245.038 752.797 246.197V295.163C752.797 296.322 751.873 297.191 750.642 297.191H745.714C744.482 297.191 743.559 296.322 743.559 295.163V246.197C743.405 245.183 744.482 244.169 745.714 244.169Z" fill="url(#paint32_linear)"/>
<path d="M867.048 265.61L870.589 263.726C871.667 263.147 873.053 263.437 873.515 264.451L890.914 292.7C891.53 293.714 891.222 295.018 890.144 295.453L886.603 297.336C885.525 297.915 884.139 297.626 883.677 296.612L866.278 268.362C865.662 267.493 865.97 266.189 867.048 265.61Z" fill="url(#paint33_linear)"/>
<path d="M858.733 252.137H863.66C864.892 252.137 865.816 253.006 865.816 254.165V295.598C865.816 296.757 864.892 297.626 863.66 297.626H858.733C857.501 297.626 856.577 296.757 856.577 295.598V254.165C856.577 253.006 857.501 252.137 858.733 252.137Z" fill="url(#paint34_linear)"/>
<path d="M755.107 246.052H760.034C761.266 246.052 762.19 246.922 762.19 248.08V295.163C762.19 296.322 761.266 297.191 760.034 297.191H755.107C753.875 297.191 752.951 296.322 752.951 295.163V248.08C752.951 247.066 753.875 246.052 755.107 246.052Z" fill="url(#paint35_linear)"/>
<path d="M724.759 591.099C729.371 584.725 732.355 577.336 733.441 569.368C734.661 559.662 737.917 547.493 746.192 539.091C758.807 526.342 760.57 472.451 760.842 452.459C760.977 444.926 762.062 437.393 764.097 430.294C767.895 417.69 775.492 400.161 790.413 391.759C805.605 383.211 854.168 379.59 868.275 392.193C897.032 417.835 893.099 451.59 893.506 456.95C895.676 482.157 894.319 500.556 906.392 516.491C918.465 532.427 932.03 551.694 928.503 571.252C924.976 590.809 956.582 619.783 921.992 631.807C887.401 643.831 851.997 652.234 813.473 648.902C779.29 646.004 732.627 640.065 723.403 615.871C719.062 603.992 721.368 596.024 724.759 591.099Z" fill="#E9EDFA"/>
<path d="M838.568 733.071C838.568 734.229 839.246 735.388 840.196 735.823C851.59 741.038 917.787 771.606 929.181 782.471C941.525 794.35 943.56 801.739 943.017 804.926C942.882 805.65 941.118 805.94 939.355 806.085C937.863 806.23 936.777 807.533 936.777 809.127L937.049 828.974C937.049 833.61 940.711 837.376 945.052 837.376H947.358C951.699 837.376 955.226 833.61 955.361 828.974L955.632 809.272C955.632 807.823 954.683 806.519 953.326 806.374L951.292 806.085C950.207 805.94 949.393 805.071 949.121 803.912C948.172 800 945.459 790.584 941.661 786.817C936.913 782.036 928.503 771.316 895.676 755.091C870.445 742.777 850.234 733.94 842.23 730.463C840.874 729.883 839.246 730.463 838.704 731.912C838.704 732.346 838.704 732.636 838.568 733.071Z" fill="#BAC5F4"/>
<path d="M733.441 588.057C735.068 585.594 737.103 581.972 740.766 579.944C744.428 577.916 751.889 572.411 788.378 588.346C840.467 611.236 883.332 583.276 887.401 582.696C891.471 582.117 928.232 569.803 927.282 595.59C926.332 621.376 882.789 635.284 869.631 635.863C856.474 636.443 801.672 641.948 774.678 633.69C747.684 625.433 737.374 614.278 735.475 611.525C733.441 608.483 726.658 598.342 733.441 588.057Z" fill="#BAC5F4"/>
<path d="M736.967 775.227H739.545C744.157 775.372 748.091 771.316 748.091 766.39C748.091 766.246 748.091 766.246 748.091 766.101L747.819 753.062C747.819 751.614 746.87 750.31 745.649 749.73L744.835 749.441C743.072 748.716 742.122 746.543 742.936 744.66C743.207 743.936 743.614 743.356 744.157 743.066C744.699 742.632 745.378 742.342 745.92 742.052C751.617 739.734 763.69 732.346 795.432 728.869C812.795 726.986 821.612 726.407 826.224 726.262C828.123 726.117 829.615 724.523 829.615 722.35C829.615 722.06 829.615 721.771 829.48 721.481C829.073 719.743 827.445 718.584 825.681 718.873C814.558 720.322 774.949 725.392 761.927 728.724C754.33 730.753 747.005 734.085 740.223 738.431C737.646 740.169 735.882 743.066 735.611 746.398C735.475 747.557 734.933 748.572 734.119 749.151C732.762 750.165 731.406 750.889 729.914 751.469C727.743 752.193 727.743 760.161 728.286 766.825C728.422 771.316 732.22 775.083 736.967 775.227Z" fill="#A2B7ED"/>
<path d="M929.181 775.227H927.282C922.263 775.372 918.058 771.026 918.058 765.666C918.058 765.521 918.058 765.376 918.058 765.231L918.329 752.918C918.329 751.469 919.143 750.165 920.5 749.586L921.314 749.296C923.077 748.572 924.027 746.398 923.213 744.515C922.941 743.936 922.534 743.356 921.992 742.922C921.449 742.487 920.771 742.197 920.228 741.908C914.531 739.59 902.594 732.201 871.124 728.724C854.032 726.841 845.215 726.262 840.738 726.117C838.839 725.972 837.347 724.378 837.347 722.205C837.347 721.916 837.347 721.626 837.483 721.336C837.89 719.598 839.518 718.439 841.281 718.728C852.404 720.177 891.607 725.248 904.358 728.58C911.954 730.608 919.143 733.94 925.79 738.286C928.367 740.024 930.131 742.922 930.402 746.254C930.538 747.413 931.08 748.427 931.894 749.006C933.115 749.875 934.471 750.745 935.964 751.324C938.134 752.048 937.998 760.161 937.591 766.825C937.456 771.316 933.793 775.083 929.181 775.227Z" fill="#A2B7ED"/>
<path d="M827.987 654.841L827.716 764.507C827.716 765.956 826.631 767.115 825.274 767.115H824.732C823.375 767.115 822.29 768.274 822.29 769.723C822.29 769.723 822.29 769.722 822.29 769.867L822.697 788.411C822.833 792.902 826.224 796.668 830.565 796.668L835.991 796.813C840.467 796.958 844.265 793.046 844.265 788.266C844.265 788.121 844.265 787.976 844.265 787.686L843.587 769.723C843.587 768.274 842.502 767.26 841.145 767.26C839.789 767.26 838.704 766.101 838.704 764.652L838.975 652.234C838.975 650.785 837.89 649.626 836.533 649.626H830.293C828.937 649.626 827.852 650.785 827.852 652.234C827.852 652.234 827.852 652.234 827.852 652.378L827.987 654.841Z" fill="#A2B7ED"/>
<path d="M828.123 734.374C828.123 734.374 745.106 770.012 732.084 781.891C719.062 793.771 716.891 801.159 717.434 804.346C717.434 804.636 717.977 804.926 718.519 805.071C721.775 806.085 723.945 809.272 723.809 812.749L723.538 831.437C723.538 834.334 721.232 836.652 718.655 836.652H709.295C706.582 836.652 704.412 834.334 704.276 831.437L704.005 812.893C703.869 808.982 706.582 805.505 710.245 804.926H710.38C710.38 804.926 713.636 790.873 718.655 786.093C723.674 781.312 732.491 770.592 767.217 754.366C801.943 738.141 827.987 728 827.987 728L828.123 734.374Z" fill="#BAC5F4"/>
<path d="M1113.42 996.024C1106.1 985.068 1100.28 982.161 1082.18 981.714C1064.08 981.267 1040.03 981.49 1040.03 981.49L1039.78 1004.63C1039.78 1004.63 1059.74 1015.03 1070.4 1020.17C1071.02 1020.51 1072.75 1021.4 1073.99 1022.07C1075.85 1022.86 1077.84 1023.53 1079.82 1023.97C1090.36 1025.99 1099.9 1024.98 1106.72 1018.83C1114.28 1012.01 1120.73 1006.98 1113.42 996.024Z" fill="#4B49BB"/>
<path d="M976.929 975.453C976.309 975.9 974.697 977.018 973.582 977.801C972.094 979.031 970.73 980.484 969.491 981.937C963.54 989.987 960.937 998.372 964.78 1006.42C968.995 1015.25 971.846 1022.63 985.73 1020.51C999.615 1018.38 1004.95 1014.58 1012.14 999.714C1019.33 984.844 1028.13 964.497 1028 964.497L1004.33 955.665C1004.33 955.665 986.226 968.522 976.929 975.453Z" fill="#4B49BB"/>
<path d="M1041.64 982.496C1041.64 982.496 1042.01 1005.86 1037.8 1006.42C1033.58 1006.98 975.441 999.378 952.26 998.26C929.078 997.142 876.516 983.614 850.731 957.342C828.417 934.646 831.888 909.491 848.376 909.491C864.863 909.491 879.987 896.858 921.888 914.858C963.788 932.857 1008.17 935.876 1033.09 934.087C1058 932.298 1127.8 920.671 1133.25 917.094C1138.7 913.516 1164.86 903.231 1201.31 906.808C1237.75 910.386 1220.52 936.435 1212.84 946.497C1202.05 960.472 1176.51 975.453 1155.19 976.124C1133.87 976.795 1041.64 982.496 1041.64 982.496Z" fill="url(#paint36_linear)"/>
<path d="M998.499 573.869C986.226 577.894 970.607 632.676 970.607 632.676L970.359 632.452L968.623 640.054L966.516 650.005L970.607 709.482L1010.28 727.37L1101.39 749.506L1126.56 781.816C1126.56 781.816 1182.96 833.579 1183.33 837.157C1183.7 840.735 1122.71 858.958 1116.89 859.741C1102.88 861.641 1206.51 838.722 1173.29 802.387C1159.16 786.847 1138.46 740.115 1097.42 709.147C1073.62 691.259 1080.32 640.39 1071.89 608.192C1061.35 567.944 1054.9 555.869 1044.37 555.869C1034.82 555.869 1021.56 566.155 998.499 573.869Z" fill="url(#paint37_linear)"/>
<path d="M1127.42 703.892C1108.33 688.128 1101.89 684.327 1085.15 689.693C1068.42 695.06 1060.23 699.979 1037.42 703.333C1023.42 705.569 1008.91 703.892 995.896 698.749L948.912 702.998C942.962 702.327 876.144 815.468 874.533 838.946C873.541 853.368 909.863 875.616 920.028 877.852C924.119 878.746 931.433 843.194 933.789 839.952L918.541 835.704C921.268 829.555 930.441 814.35 936.516 806.189C938.375 803.617 952.879 782.04 954.863 773.767C955.235 774.549 957.342 790.201 959.326 795.232C963.045 804.512 968.127 809.766 968.127 817.145C968.127 824.524 967.135 853.815 961.185 867.008C955.235 880.2 946.557 910.721 946.557 910.721L1096.8 909.939C1096.8 909.939 1091.35 851.691 1093.58 831.679C1093.58 831.679 1091.23 823.629 1095.69 812.002C1103 792.773 1105.11 764.152 1103.87 759.68C1102.01 752.637 1148 812.226 1158.04 827.319C1162.26 833.579 1105.11 844.648 1100.4 849.455C1095.44 854.486 1105.23 868.126 1105.23 868.126C1105.23 868.126 1204.9 857.169 1204.41 843.418C1203.91 829.666 1149.61 722.115 1127.42 703.892Z" fill="url(#paint38_linear)"/>
<path d="M1010.52 541.671C1010.52 541.671 982.631 542.677 974.573 569.062C966.516 595.446 965.4 632.228 965.152 637.93C964.904 643.967 968.003 679.296 953.003 694.054C940.111 706.799 945.317 719.097 942.094 729.27L940.607 746.152C940.855 748.165 942.466 749.842 944.574 750.512C946.557 751.071 953.499 748.165 954.739 747.717C972.094 741.457 972.094 736.426 978.664 731.395C984.119 727.258 999.119 717.643 1003.58 713.842C1008.04 710.041 1011.14 706.687 1011.39 701.88C1012.26 677.395 1007.55 654.812 1001.6 642.849C995.648 630.887 984.243 610.651 993.788 597.235C1003.33 583.819 1020.56 570.403 1021.56 567.049C1022.55 563.695 1023.04 580.018 1033.58 585.72C1044.12 591.422 1052.92 599.359 1056.14 607.074C1058.87 613.558 1062.47 624.626 1052.55 643.744C1042.63 662.862 1034.57 687.457 1048.58 705.681C1062.59 723.904 1092.09 743.581 1096.93 752.748C1102.38 762.922 1097.18 786.847 1096.18 801.269C1095.19 815.692 1127.42 776.226 1126.43 757.444C1125.44 738.662 1128.91 730.612 1108.95 701.768C1088.99 672.923 1075.98 623.508 1075.48 611.546C1074.99 599.583 1069.04 566.379 1057.01 556.876C1046.6 548.826 1044.37 541 1023.04 541C1018.83 541 1014.61 541.224 1010.52 541.671Z" fill="url(#paint39_linear)"/>
<path opacity="0.07" d="M946.929 941.466L1087.75 942.137C1087.75 942.137 1071.27 953.764 1063.33 955.106C1055.4 956.447 1021.43 971.652 1008.79 965.838C999.863 961.478 946.929 941.466 946.929 941.466Z" fill="black"/>
<path opacity="0.07" d="M1025.4 656.265C1025.4 656.265 1038.54 659.284 1043.99 652.352C1056.27 636.7 1045.11 660.29 1045.11 660.29C1045.11 660.29 1041.52 669.458 1041.76 674.041C1042.01 678.625 1027.63 656.936 1025.4 656.265Z" fill="black"/>
<path opacity="0.07" d="M972.838 736.761C971.226 738.55 968.871 740.003 967.631 744.587C965.524 751.966 963.293 760.239 957.59 767.841C954.243 772.313 956.102 789.642 961.681 800.599C963.293 803.729 968.251 811.89 968.127 813.791L967.755 829.667H982.879C982.879 829.667 995.772 830.896 993.044 821.282C990.689 812.785 978.416 781.145 986.722 774.214C1002.34 761.357 982.631 735.643 989.945 727.37C996.267 720.215 1005.32 715.072 1005.32 712.724C1005.32 711.83 1002.96 714.736 1001.35 715.743C998.251 717.755 996.639 719.32 994.036 720.885C991.185 722.562 986.846 725.357 983.995 727.258C979.904 730.053 976.185 733.183 972.838 736.761Z" fill="black"/>
<path d="M914.083 845.558C914.083 845.558 913.959 837.091 923.009 836.748C932.058 836.405 1123.71 836.634 1123.71 836.634C1123.71 836.634 1132.14 837.549 1132.39 843.841C1132.64 850.134 1132.64 943.606 1132.64 943.606C1132.64 943.606 1132.76 950.814 1124.45 951.043C1116.15 951.272 920.777 951.272 920.777 951.272C920.777 951.272 913.463 949.556 913.587 942.806C913.711 936.055 914.083 845.558 914.083 845.558Z" fill="url(#paint40_linear)"/>
<path d="M1023.92 901.618C1028.5 901.618 1032.22 898.186 1032.22 893.953C1032.22 889.719 1028.5 886.287 1023.92 886.287C1019.33 886.287 1015.61 889.719 1015.61 893.953C1015.61 898.186 1019.33 901.618 1023.92 901.618Z" fill="#77C7E8"/>
<path d="M777.401 923.704C777.401 923.704 769.733 920.336 769.143 918.091C768.553 915.846 765.899 902 770.912 902H813.972C813.972 902 821.051 916.594 812.203 919.588C803.355 922.582 811.023 928.569 813.383 928.569C815.742 928.569 821.641 928.569 822.82 932.686C824 936.802 824 1021 824 1021H760V939.047C760 934.182 762.949 930.44 766.783 930.066H767.078C774.452 930.066 779.465 927.821 777.401 923.704Z" fill="#00FFA3"/>
<path d="M816 968H768V988H816V968Z" fill="white"/>
<path d="M387.435 959.984L383.431 959.839L362.952 959.984C362.952 959.984 358.487 979.686 356.023 987.943C355.869 988.523 355.407 989.827 355.1 990.841C354.792 992.289 354.638 993.738 354.638 995.187C355.1 1002.72 358.025 1008.95 365.108 1012.43C372.807 1016.19 378.812 1019.52 387.127 1012.43C395.441 1005.33 396.519 1000.84 393.286 988.523C390.36 976.064 389.282 960.418 387.435 959.984Z" fill="#4B44BE"/>
<path d="M473.046 984.611C458.88 980.41 449.487 962.446 449.487 962.446L425.467 961.143C425.467 961.143 424.081 979.396 423.465 988.668C422.541 1000.98 424.851 1006.49 433.474 1005.91C444.868 1005.04 491.061 1008.95 498.452 1004.6C507.845 998.664 486.134 988.523 473.046 984.611Z" fill="#4B44BE"/>
<path d="M328.461 634.752V661.843L363.26 960.273H387.897C387.897 960.273 396.365 755.573 396.365 748.475C396.365 741.376 398.521 719.211 398.521 719.211C398.521 719.211 429.47 803.235 430.086 810.334C430.702 817.288 425.005 962.157 425.005 962.157L449.641 963.026C449.641 963.026 471.198 865.094 471.198 855.823C471.198 846.551 478.589 798.455 477.357 789.183C476.279 779.911 457.956 635.622 457.956 635.622L420.232 634.752H328.461Z" fill="url(#paint41_linear)"/>
<path d="M488.136 603.461L487.828 603.026C487.828 603.316 487.982 603.605 488.136 603.461ZM415.766 577.239L402.062 582.599L401.293 600.563L416.536 606.213C416.536 606.068 433.166 605.634 433.166 605.489C433.32 604.764 439.787 604.909 442.712 606.793L494.295 590.133L496.142 578.543C496.142 578.543 499.992 593.175 482.746 563.766L415.766 577.239ZM477.357 518.133L476.279 512.338L473.662 511.903L477.357 518.133ZM382.045 362.253C375.732 364.716 372.653 373.408 372.653 373.408C372.653 373.408 369.573 371.67 369.573 376.595C369.573 381.521 372.191 392.676 374.039 395.573C377.272 400.354 380.198 405.28 382.969 410.495C385.433 415.71 384.663 426.141 382.045 427.734C379.428 429.328 332.619 468.732 332.619 468.732L293.971 580.282V584.772L299.822 586.656L305.981 591.581C306.597 591.726 314.296 595.638 315.373 596.362C321.533 599.259 328 601.432 334.775 602.881C339.086 603.75 358.487 603.316 358.487 603.316L378.042 602.881L374.655 579.412L345.707 579.123L306.135 577.239L346.323 490.463L472.892 511.758C450.411 473.513 425.159 430.487 422.849 425.996C421.002 422.229 423.003 413.392 424.081 408.756C425.005 404.555 427.315 399.34 429.316 397.891C431.318 396.442 435.168 389.489 435.168 386.591C435.168 383.694 436.091 371.96 433.474 374.422C432.704 375.147 429.624 370.656 428.546 366.31C426.853 359.935 422.079 355.444 416.69 351.243C416.69 351.243 388.82 359.935 382.507 362.398" fill="url(#paint42_linear)"/>
<path d="M333.697 444.829C327.538 448.74 321.841 453.956 319.839 460.764C317.837 467.573 303.055 520.451 301.054 527.115C296.28 543.485 293.355 548.265 287.658 567.388C280.729 591.002 296.742 594.624 313.064 598.1C330.155 601.722 330.309 603.316 334.313 603.316C334.929 603.316 355.254 607.227 355.869 596.362C356.331 589.553 354.946 578.833 352.328 579.123C346.169 579.992 325.998 574.921 324.92 574.342C323.534 573.473 329.231 558.696 332.619 549.569C335.083 542.76 344.321 514.656 346.323 509.296C347.401 506.398 341.088 536.676 337.238 566.229C337.084 567.388 335.545 578.833 336.006 578.833C340.626 578.833 353.252 578.978 357.101 579.412C374.809 581.296 378.196 589.263 377.118 595.638C375.117 606.793 332.003 601.577 332.311 603.026C332.311 603.026 324.92 634.463 329.077 636.491C332.619 638.229 380.968 657.207 391.284 660.829C392.362 661.263 393.748 660.684 394.056 659.525C394.056 659.525 394.056 659.525 394.056 659.38L400.677 641.706C400.831 641.561 400.985 641.416 401.293 641.561C401.447 641.561 401.447 641.706 401.447 641.706L407.606 661.119C407.76 661.698 408.222 661.988 408.53 662.277H411.301L465.039 651.412C465.039 651.412 464.885 631.42 464.731 605.923C464.731 603.316 464.269 593.899 462.267 595.638C460.266 597.376 415.458 602.881 410.531 600.998C400.215 596.941 402.832 586.656 406.528 582.455C410.685 577.674 463.653 575.211 463.807 571.589C464.731 555.944 463.345 514.945 462.421 519.871C461.036 527.549 430.086 569.706 430.086 577.094C430.086 584.483 429.47 602.881 429.47 602.881L480.283 599.115C480.283 599.115 497.374 593.609 498.914 584.338C500.454 575.066 498.606 571.01 497.99 557.102C497.528 548.41 484.44 495.823 480.745 480.901C480.129 478.583 479.821 476.41 479.667 474.092C479.205 467.863 476.587 453.521 462.421 447.292C444.868 439.469 431.318 433.239 427.777 433.239C424.543 433.239 415.458 451.783 410.839 456.998C408.837 459.316 409.145 460.475 406.528 463.952C405.142 465.835 402.524 466.125 400.523 464.821C400.061 464.531 399.753 464.096 399.445 463.662C397.905 461.634 396.673 459.316 395.441 457.143C393.44 453.231 377.272 430.921 377.272 430.921C377.272 430.921 339.856 440.772 333.697 444.829Z" fill="url(#paint43_linear)"/>
<path d="M416.382 351.388C416.382 351.388 382.046 363.412 379.582 365.151C377.118 366.889 372.653 373.553 372.653 373.553C372.653 373.553 370.189 372.249 369.727 375.726C369.727 375.726 366.186 368.917 365.724 365.151C365.262 361.384 365.724 351.533 372.345 345.014C378.966 338.495 392.208 329.947 400.369 331.106C408.53 332.265 412.071 333.135 417.152 338.06C422.233 342.841 426.699 344.29 428.239 345.014C429.778 345.738 435.629 349.795 436.707 357.328C437.631 364.861 435.014 379.927 435.014 379.927C435.014 379.927 435.783 374.133 433.32 375.871C431.626 377.175 429.008 371.815 428.239 368.628C427.161 365.296 418.384 352.113 416.382 351.388Z" fill="url(#paint44_linear)"/>
<g opacity="0.07">
<path d="M427.931 433.674C427.777 433.094 431.626 435.847 427.007 432.805C420.54 428.314 423.619 410.205 423.619 410.205C421.156 414.986 416.998 418.607 411.917 420.491C403.756 423.388 401.139 421.215 413.919 428.169C426.391 434.978 419.924 437.296 419 446.277" fill="black"/>
</g>
<g opacity="0.07">
<path d="M453.029 497.706L470.12 558.551C470.12 558.551 469.966 569.416 466.579 571.01C463.191 572.603 452.413 573.617 449.949 574.776C447.486 575.935 421.31 581.006 428.085 572.314C429.624 570.43 465.039 558.696 449.179 546.527C433.32 534.358 436.091 517.263 443.79 505.529C451.489 493.795 449.795 483.799 449.795 483.799L453.029 497.706Z" fill="black"/>
</g>
<g opacity="0.07">
<path d="M380.814 657.931C380.814 657.931 366.032 731.67 373.731 761.078C385.279 805.698 368.649 866.108 368.649 895.082C368.649 913.915 376.502 965.923 377.118 987.219C377.272 993.593 382.199 1005.91 378.504 1008.8C376.964 1010.11 367.572 1007.21 362.49 1004.89C359.719 1003.59 358.179 1000.98 358.487 998.374L361.567 985.77L365.878 969.11L335.237 699.509C335.237 699.509 325.382 639.533 330.925 639.243C336.468 638.954 380.968 657.931 380.814 657.931Z" fill="black"/>
</g>
<path d="M366.802 558.841L424.697 565.65C425.929 565.939 426.699 566.954 426.545 568.257L424.851 617.513C424.697 619.107 423.773 621.135 422.233 620.7L364.646 610.269C363.568 609.98 362.798 608.966 362.798 607.952L362.644 602.591L368.957 600.998C370.651 600.563 372.191 599.694 373.423 598.825C373.731 598.68 374.039 598.39 374.193 598.1L375.578 596.217C376.04 595.638 376.194 594.913 376.04 594.334C375.886 593.175 375.424 591.726 375.27 590.857C375.117 590.567 375.117 590.278 374.963 589.988L373.577 587.09C372.961 585.787 371.883 584.772 370.343 584.048L369.419 583.614L363.26 580.426L363.876 561.159C363.876 559.855 365.108 558.841 366.494 558.841C366.648 558.841 366.648 558.841 366.802 558.841Z" fill="white"/>
</g>
<defs>
<linearGradient id="paint0_linear" x1="1184.96" y1="901.61" x2="1311.82" y2="901.61" gradientUnits="userSpaceOnUse">
<stop stop-color="#93FD93"/>
<stop offset="0.51" stop-color="#21C2C1"/>
<stop offset="1" stop-color="#84F599"/>
</linearGradient>
<linearGradient id="paint1_linear" x1="1232.49" y1="863.918" x2="1299.36" y2="951.057" gradientUnits="userSpaceOnUse">
<stop stop-color="#93FD93"/>
<stop offset="0.51" stop-color="#21C2C1"/>
<stop offset="1" stop-color="#84F599"/>
</linearGradient>
<linearGradient id="paint2_linear" x1="1315.49" y1="957.934" x2="1409.99" y2="880.215" gradientUnits="userSpaceOnUse">
<stop stop-color="#93FD93"/>
<stop offset="0.51" stop-color="#21C2C1"/>
<stop offset="1" stop-color="#84F599"/>
</linearGradient>
<linearGradient id="paint3_linear" x1="1340.4" y1="921.297" x2="1261.58" y2="815.246" gradientUnits="userSpaceOnUse">
<stop stop-color="#93FD93"/>
<stop offset="0.51" stop-color="#21C2C1"/>
<stop offset="1" stop-color="#84F599"/>
</linearGradient>
<linearGradient id="paint4_linear" x1="1256.37" y1="858.477" x2="1316.25" y2="858.477" gradientUnits="userSpaceOnUse">
<stop stop-color="#93FD93"/>
<stop offset="0.51" stop-color="#21C2C1"/>
<stop offset="1" stop-color="#84F599"/>
</linearGradient>
<linearGradient id="paint5_linear" x1="1311.12" y1="950.529" x2="1370.76" y2="858.859" gradientUnits="userSpaceOnUse">
<stop stop-color="#93FD93"/>
<stop offset="0.51" stop-color="#21C2C1"/>
<stop offset="1" stop-color="#84F599"/>
</linearGradient>
<linearGradient id="paint6_linear" x1="1273.72" y1="973.339" x2="1366.15" y2="973.339" gradientUnits="userSpaceOnUse">
<stop offset="0.000688093" stop-color="#58CAEA"/>
<stop offset="0.9992" stop-color="#4B45BD"/>
</linearGradient>
<linearGradient id="paint7_linear" x1="11.9609" y1="901.611" x2="138.816" y2="901.611" gradientUnits="userSpaceOnUse">
<stop stop-color="#93FD93"/>
<stop offset="0.51" stop-color="#21C2C1"/>
<stop offset="1" stop-color="#84F599"/>
</linearGradient>
<linearGradient id="paint8_linear" x1="59.4925" y1="863.918" x2="126.363" y2="951.057" gradientUnits="userSpaceOnUse">
<stop stop-color="#93FD93"/>
<stop offset="0.51" stop-color="#21C2C1"/>
<stop offset="1" stop-color="#84F599"/>
</linearGradient>
<linearGradient id="paint9_linear" x1="142.49" y1="957.934" x2="236.994" y2="880.216" gradientUnits="userSpaceOnUse">
<stop stop-color="#93FD93"/>
<stop offset="0.51" stop-color="#21C2C1"/>
<stop offset="1" stop-color="#84F599"/>
</linearGradient>
<linearGradient id="paint10_linear" x1="167.401" y1="921.298" x2="88.5833" y2="815.247" gradientUnits="userSpaceOnUse">
<stop stop-color="#93FD93"/>
<stop offset="0.51" stop-color="#21C2C1"/>
<stop offset="1" stop-color="#84F599"/>
</linearGradient>
<linearGradient id="paint11_linear" x1="83.3678" y1="858.478" x2="143.251" y2="858.478" gradientUnits="userSpaceOnUse">
<stop stop-color="#93FD93"/>
<stop offset="0.51" stop-color="#21C2C1"/>
<stop offset="1" stop-color="#84F599"/>
</linearGradient>
<linearGradient id="paint12_linear" x1="138.119" y1="950.529" x2="197.755" y2="858.86" gradientUnits="userSpaceOnUse">
<stop stop-color="#93FD93"/>
<stop offset="0.51" stop-color="#21C2C1"/>
<stop offset="1" stop-color="#84F599"/>
</linearGradient>
<linearGradient id="paint13_linear" x1="100.721" y1="973.339" x2="193.146" y2="973.339" gradientUnits="userSpaceOnUse">
<stop offset="0.000688093" stop-color="#58CAEA"/>
<stop offset="0.9992" stop-color="#4B45BD"/>
</linearGradient>
<linearGradient id="paint14_linear" x1="171.971" y1="454.059" x2="267.407" y2="454.059" gradientUnits="userSpaceOnUse">
<stop stop-color="#93FD93"/>
<stop offset="0.51" stop-color="#21C2C1"/>
<stop offset="1" stop-color="#84F599"/>
</linearGradient>
<linearGradient id="paint15_linear" x1="207.73" y1="425.32" x2="258.888" y2="491.099" gradientUnits="userSpaceOnUse">
<stop stop-color="#93FD93"/>
<stop offset="0.51" stop-color="#21C2C1"/>
<stop offset="1" stop-color="#84F599"/>
</linearGradient>
<linearGradient id="paint16_linear" x1="270.171" y1="497.003" x2="342.034" y2="438.689" gradientUnits="userSpaceOnUse">
<stop stop-color="#93FD93"/>
<stop offset="0.51" stop-color="#21C2C1"/>
<stop offset="1" stop-color="#84F599"/>
</linearGradient>
<linearGradient id="paint17_linear" x1="288.912" y1="469.069" x2="228.59" y2="388.983" gradientUnits="userSpaceOnUse">
<stop stop-color="#93FD93"/>
<stop offset="0.51" stop-color="#21C2C1"/>
<stop offset="1" stop-color="#84F599"/>
</linearGradient>
<linearGradient id="paint18_linear" x1="225.692" y1="421.172" x2="270.744" y2="421.172" gradientUnits="userSpaceOnUse">
<stop stop-color="#93FD93"/>
<stop offset="0.51" stop-color="#21C2C1"/>
<stop offset="1" stop-color="#84F599"/>
</linearGradient>
<linearGradient id="paint19_linear" x1="266.882" y1="491.357" x2="312.596" y2="422.022" gradientUnits="userSpaceOnUse">
<stop stop-color="#93FD93"/>
<stop offset="0.51" stop-color="#21C2C1"/>
<stop offset="1" stop-color="#84F599"/>
</linearGradient>
<linearGradient id="paint20_linear" x1="238.747" y1="508.748" x2="308.281" y2="508.748" gradientUnits="userSpaceOnUse">
<stop offset="0.000688093" stop-color="#A1EA58"/>
<stop offset="0.9992" stop-color="#45A0BD"/>
</linearGradient>
<linearGradient id="paint21_linear" x1="611.914" y1="486.858" x2="762.003" y2="486.858" gradientUnits="userSpaceOnUse">
<stop stop-color="#F8C547"/>
<stop offset="1" stop-color="#F71D69"/>
</linearGradient>
<linearGradient id="paint22_linear" x1="541.053" y1="528.352" x2="614.078" y2="528.352" gradientUnits="userSpaceOnUse">
<stop stop-color="#F8C547"/>
<stop offset="1" stop-color="#F71D69"/>
</linearGradient>
<linearGradient id="paint23_linear" x1="611.955" y1="485.759" x2="762.044" y2="485.759" gradientUnits="userSpaceOnUse">
<stop stop-color="#F8C547"/>
<stop offset="1" stop-color="#F71D69"/>
</linearGradient>
<linearGradient id="paint24_linear" x1="1046.73" y1="508.788" x2="1063.83" y2="508.788" gradientUnits="userSpaceOnUse">
<stop stop-color="#58CAEA"/>
<stop offset="1" stop-color="#4C4CBF"/>
</linearGradient>
<linearGradient id="paint25_linear" x1="1095.3" y1="514.282" x2="1104.66" y2="514.053" gradientUnits="userSpaceOnUse">
<stop stop-color="#58CAEA"/>
<stop offset="1" stop-color="#4C4CBF"/>
</linearGradient>
<linearGradient id="paint26_linear" x1="1055.74" y1="491.724" x2="1117.82" y2="491.724" gradientUnits="userSpaceOnUse">
<stop stop-color="#4C4FC0"/>
<stop offset="1" stop-color="#58CAEA"/>
</linearGradient>
<linearGradient id="paint27_linear" x1="1072.05" y1="484.798" x2="1077.1" y2="484.798" gradientUnits="userSpaceOnUse">
<stop stop-color="#4D54C2"/>
<stop offset="1" stop-color="#4C4CBF"/>
</linearGradient>
<linearGradient id="paint28_linear" x1="1100.42" y1="484.861" x2="1104.78" y2="484.861" gradientUnits="userSpaceOnUse">
<stop stop-color="#4D54C2"/>
<stop offset="1" stop-color="#4C4CBF"/>
</linearGradient>
<linearGradient id="paint29_linear" x1="770.288" y1="284.305" x2="838.745" y2="284.305" gradientUnits="userSpaceOnUse">
<stop stop-color="#4B46BD"/>
<stop offset="1" stop-color="#5CD4EE"/>
</linearGradient>
<linearGradient id="paint30_linear" x1="772.698" y1="292.154" x2="842.652" y2="292.154" gradientUnits="userSpaceOnUse">
<stop stop-color="#F8C547"/>
<stop offset="1" stop-color="#F71D69"/>
</linearGradient>
<linearGradient id="paint31_linear" x1="837.68" y1="287.898" x2="873.059" y2="240.979" gradientUnits="userSpaceOnUse">
<stop stop-color="#4B46BD"/>
<stop offset="1" stop-color="#5CD4EE"/>
</linearGradient>
<linearGradient id="paint32_linear" x1="733.807" y1="287.556" x2="769.187" y2="240.638" gradientUnits="userSpaceOnUse">
<stop stop-color="#4B46BD"/>
<stop offset="1" stop-color="#5CD4EE"/>
</linearGradient>
<linearGradient id="paint33_linear" x1="874.19" y1="296.519" x2="876.362" y2="253.829" gradientUnits="userSpaceOnUse">
<stop stop-color="#4B46BD"/>
<stop offset="1" stop-color="#5CD4EE"/>
</linearGradient>
<linearGradient id="paint34_linear" x1="848.797" y1="289.489" x2="879.567" y2="248.684" gradientUnits="userSpaceOnUse">
<stop stop-color="#7D5DF5"/>
<stop offset="1" stop-color="#CD94EF"/>
</linearGradient>
<linearGradient id="paint35_linear" x1="743.707" y1="287.955" x2="777.935" y2="242.564" gradientUnits="userSpaceOnUse">
<stop stop-color="#F8C547"/>
<stop offset="1" stop-color="#F71D69"/>
</linearGradient>
<linearGradient id="paint36_linear" x1="1223.69" y1="955.817" x2="835" y2="955.817" gradientUnits="userSpaceOnUse">
<stop stop-color="#4B45BD"/>
<stop offset="1" stop-color="#58CAEA"/>
</linearGradient>
<linearGradient id="paint37_linear" x1="966.516" y1="707.86" x2="1183.33" y2="707.86" gradientUnits="userSpaceOnUse">
<stop stop-color="#F87B58"/>
<stop offset="0.5" stop-color="#F8C548"/>
<stop offset="1" stop-color="#F89C51"/>
</linearGradient>
<linearGradient id="paint38_linear" x1="874.513" y1="799.062" x2="1204.41" y2="799.062" gradientUnits="userSpaceOnUse">
<stop stop-color="#E5A4ED"/>
<stop offset="1" stop-color="#7A5BF5"/>
</linearGradient>
<linearGradient id="paint39_linear" x1="940.607" y1="672.687" x2="1126.45" y2="672.687" gradientUnits="userSpaceOnUse">
<stop stop-color="#4B45BD"/>
<stop offset="1" stop-color="#58CAEA"/>
</linearGradient>
<linearGradient id="paint40_linear" x1="1133" y1="837" x2="914" y2="936" gradientUnits="userSpaceOnUse">
<stop stop-color="#FFE600"/>
<stop offset="0.22011" stop-color="#FF9A00"/>
<stop offset="0.8043" stop-color="#FF2E00"/>
</linearGradient>
<linearGradient id="paint41_linear" x1="328.528" y1="798.782" x2="477.594" y2="798.782" gradientUnits="userSpaceOnUse">
<stop stop-color="#4B45BD"/>
<stop offset="1" stop-color="#7A5BF5"/>
</linearGradient>
<linearGradient id="paint42_linear" x1="293.969" y1="478.931" x2="496.326" y2="478.931" gradientUnits="userSpaceOnUse">
<stop stop-color="#F87B58"/>
<stop offset="0.41" stop-color="#F89453"/>
<stop offset="0.71" stop-color="#F8C548"/>
<stop offset="1" stop-color="#F89C51"/>
</linearGradient>
<linearGradient id="paint43_linear" x1="285.944" y1="546.894" x2="499.836" y2="546.894" gradientUnits="userSpaceOnUse">
<stop stop-color="#E5A4ED"/>
<stop offset="1" stop-color="#7A5BF5"/>
</linearGradient>
<linearGradient id="paint44_linear" x1="365.7" y1="355.354" x2="436.903" y2="355.354" gradientUnits="userSpaceOnUse">
<stop stop-color="#4B45BD"/>
<stop offset="1" stop-color="#7A5BF5"/>
</linearGradient>
<clipPath id="clip0">
<rect width="1384.47" height="862.228" fill="white" transform="translate(1.59729 133.126)"/>
</clipPath>
<clipPath id="clip1">
<rect width="1440" height="1008" fill="white" transform="translate(0 16)"/>
</clipPath>
</defs>
</svg>
